<svg width="245" height="204" viewBox="0 0 245 204" fill="none" xmlns="http://www.w3.org/2000/svg">
<path d="M125.961 201.657L239.907 134.317C243.535 132.278 246.653 128.935 243.107 126.746L128.75 60.8298C127.033 59.7653 124.432 59.0681 122.685 60.0801L3.07257 129.504C-0.55569 131.611 -1.20788 137.496 2.42038 139.602L110.938 201.552C113.217 202.874 115.801 203.58 118.436 203.598C121.07 203.616 123.664 202.947 125.961 201.657Z" fill="white"/>
<path d="M118.592 14.6969C102.269 14.6969 86.615 21.1811 75.073 32.7231C63.5309 44.2651 57.0467 59.9195 57.0467 76.2424V120.561C57.0467 145.929 84.6035 166.492 118.592 166.492C152.581 166.492 180.138 145.929 180.138 120.561V76.2499C180.139 68.167 178.547 60.163 175.455 52.6951C172.362 45.2272 167.829 38.4416 162.114 32.7258C156.399 27.01 149.614 22.4759 142.146 19.3825C134.679 16.289 126.675 14.6969 118.592 14.6969Z" fill="#CEE831"/>
<path opacity="0.46" d="M157.851 28.8426C158.668 40.8368 159.807 52.8311 160.325 64.8253C161.727 97.3298 157.536 134.317 131.966 157.526C128.107 160.989 123.858 163.99 119.304 166.469C152.963 166.184 180.138 145.742 180.138 120.554V76.2499C180.148 67.1935 178.155 58.2469 174.302 50.051C170.449 41.8551 164.831 34.6127 157.851 28.8426Z" fill="#606060"/>
<path d="M150.19 20.3941C144.65 13.5649 132.588 8.82718 118.6 8.82718C104.611 8.82718 92.5422 13.5424 87.0024 20.3941H83.7639V28.8126C83.7639 39.8473 99.3564 48.798 118.6 48.798C137.843 48.798 153.413 39.8473 153.413 28.8126V20.3941H150.19Z" fill="#77431F"/>
<path d="M118.592 40.3796C137.831 40.3796 153.428 31.4318 153.428 20.3941C153.428 9.3565 137.831 0.408722 118.592 0.408722C99.3529 0.408722 83.7564 9.3565 83.7564 20.3941C83.7564 31.4318 99.3529 40.3796 118.592 40.3796Z" fill="#895630"/>
<path d="M74.0336 43.2282C67.2373 53.9215 63.946 66.4685 64.6181 79.121C64.798 82.4794 70.0455 82.5019 69.8656 79.121C69.2134 67.4032 72.2577 55.7764 78.5689 45.8819C80.3755 43.0183 75.8402 40.3796 74.0336 43.2282Z" fill="white"/>
<path d="M67.5042 84.5634C66.8119 84.5749 66.1513 84.8551 65.6617 85.3446C65.1721 85.8342 64.892 86.4949 64.8804 87.1871V87.472C64.8804 88.1678 65.1569 88.8352 65.6489 89.3272C66.141 89.8193 66.8083 90.0957 67.5042 90.0957C68.2 90.0957 68.8674 89.8193 69.3594 89.3272C69.8515 88.8352 70.1279 88.1678 70.1279 87.472V87.1871C70.1201 86.4937 69.8412 85.8308 69.3508 85.3405C68.8605 84.8501 68.1976 84.5712 67.5042 84.5634Z" fill="white"/>
<path d="M94.4313 129.947L95.7507 132.6L96.0505 130.516" fill="#FCD11A"/>
<path d="M113.849 132.653C121.972 128.739 126.914 122.155 124.886 117.948C122.859 113.741 114.63 113.504 106.507 117.418C98.3836 121.333 93.442 127.917 95.4695 132.124C97.4969 136.331 105.726 136.568 113.849 132.653Z" fill="#FCD11A"/>
<path d="M123.847 115.771L124.889 117.937H123.847V115.771Z" fill="#FCD11A"/>
<path d="M112.805 130.494C120.928 126.579 125.87 119.995 123.842 115.788C121.815 111.581 113.586 111.344 105.463 115.259C97.3398 119.173 92.3982 125.757 94.4256 129.964C96.4531 134.171 104.682 134.408 112.805 130.494Z" fill="#FEDE17"/>
<path d="M121.928 116.693C123.69 120.351 119.229 125.689 112.183 129.077C105.136 132.465 98.112 132.698 96.3504 129.032C94.5887 125.366 99.0116 119.819 106.096 116.408C113.18 112.997 120.174 113.027 121.928 116.693Z" fill="#FEA500"/>
<path d="M109.814 121.243C110.856 122.548 110.833 123.635 109.064 124.991C108.355 125.628 107.487 126.063 106.552 126.25C105.617 126.437 104.649 126.37 103.749 126.056L102.362 127.158L101.343 126.573L102.752 125.456C102.353 125.149 102.032 124.752 101.815 124.297C101.597 123.843 101.49 123.344 101.5 122.84L104.267 121.85C104.236 122.206 104.28 122.563 104.396 122.9C104.513 123.237 104.698 123.546 104.941 123.807L106.635 122.458C105.578 121.146 105.548 120.074 107.303 118.709C109.057 117.345 111.006 116.918 112.663 117.652L113.465 117.015L114.492 117.593L113.645 118.26C113.953 118.505 114.201 118.818 114.37 119.174C114.539 119.53 114.624 119.92 114.619 120.314L111.913 121.363C111.921 120.851 111.755 120.351 111.441 119.946L109.814 121.243ZM107.198 124.242C107.58 123.934 107.64 123.687 107.348 123.23L105.788 124.459C106.013 124.561 106.262 124.597 106.506 124.563C106.751 124.528 106.98 124.425 107.168 124.264M109.102 120.584L110.601 119.369C110.378 119.266 110.129 119.228 109.885 119.26C109.641 119.292 109.411 119.392 109.222 119.549C108.854 119.841 108.779 120.089 109.102 120.554" fill="#FFF039"/>
<path d="M143.608 127.69L142.341 130.359L144.162 129.317" fill="#FCD11A"/>
<path d="M171.871 144.191C173.924 139.997 169.024 133.382 160.926 129.417C152.827 125.451 144.597 125.636 142.544 129.831C140.49 134.025 145.39 140.64 153.488 144.605C161.587 148.571 169.817 148.386 171.871 144.191Z" fill="#FCD11A"/>
<path d="M172.934 142.053L171.877 144.212L171.232 143.388L172.934 142.053Z" fill="#FCD11A"/>
<path d="M172.93 142.038C174.984 137.844 170.084 131.229 161.985 127.263C153.887 123.297 145.657 123.483 143.603 127.677C141.549 131.871 146.449 138.486 154.548 142.452C162.646 146.417 170.876 146.232 172.93 142.038Z" fill="#FEDE17"/>
<path d="M171.03 141.124C169.245 144.774 162.304 144.55 155.287 141.124C148.27 137.698 143.75 132.3 145.542 128.65C147.333 124.999 154.433 125.044 161.479 128.5C168.526 131.956 172.821 137.473 171.03 141.124Z" fill="#FEA500"/>
<path d="M159.957 134.399C159.575 136.026 158.713 136.648 156.532 136.161C155.592 135.997 154.714 135.583 153.988 134.963C153.263 134.343 152.718 133.54 152.408 132.638L150.684 132.225L150.512 131.064L152.266 131.483C152.261 130.98 152.374 130.482 152.597 130.03C152.82 129.578 153.145 129.185 153.548 128.882L156.037 130.441C155.738 130.636 155.484 130.892 155.29 131.192C155.096 131.491 154.968 131.828 154.912 132.18L157.019 132.683C157.394 131.041 158.226 130.351 160.407 130.869C162.589 131.386 164.103 132.675 164.553 134.429L165.55 134.669L165.73 135.831L164.68 135.576C164.677 135.97 164.584 136.357 164.409 136.709C164.233 137.061 163.98 137.369 163.668 137.608L161.172 136.109C161.58 135.8 161.871 135.361 161.996 134.864L159.957 134.399ZM156.014 134.175C156.487 134.287 156.726 134.175 156.899 133.665L154.965 133.2C155.024 133.439 155.15 133.656 155.328 133.826C155.506 133.996 155.728 134.111 155.969 134.16H156.007M160.092 133.41L161.989 133.86C161.932 133.62 161.808 133.401 161.632 133.228C161.455 133.056 161.233 132.937 160.992 132.885H160.954C160.497 132.773 160.257 132.885 160.092 133.41Z" fill="#FFF039"/>
<path d="M97.6772 9.79422V9.50935C97.6747 8.80702 97.8583 8.11656 98.2095 7.50832C98.5607 6.90008 99.0668 6.3958 99.6763 6.04685C100.286 5.6979 100.977 5.51676 101.679 5.52188C102.382 5.527 103.07 5.7182 103.674 6.076L140.924 27.8156C141.524 28.1655 142.022 28.6667 142.368 29.2692C142.714 29.8716 142.896 30.5542 142.896 31.2489C142.901 31.9525 142.719 32.6449 142.369 33.2552C142.019 33.8656 141.513 34.372 140.903 34.7228C140.293 35.0735 139.601 35.2559 138.897 35.2515C138.194 35.247 137.504 35.0557 136.898 34.6973L99.6713 13.2501C99.0637 12.901 98.5592 12.3975 98.209 11.7906C97.8588 11.1837 97.6753 10.4949 97.6772 9.79422Z" fill="#351D0C"/>
<path d="M119.072 8.54233C116.204 8.62774 113.377 9.23751 110.728 10.3415C106.508 12.1481 118.93 15.7914 118.93 15.7914" fill="#F2AE16"/>
<path d="M120.174 24.9894C123.78 27.0135 127.221 29.3823 130.789 31.4888C132.049 29.6245 132.862 27.4943 133.164 25.2643C133.465 23.0342 133.248 20.7646 132.528 18.6325C130.107 11.1361 122.625 6.90061 115.804 9.11205C113.816 9.78833 112.028 10.9491 110.601 12.4896C109.175 14.0301 108.154 15.9017 107.632 17.9353C111.83 20.2517 115.991 22.6431 120.174 24.9894Z" fill="#EA8B24"/>
<path d="M120.174 24.9894C122.903 26.4887 125.534 28.2504 128.203 29.9146C129.616 26.5845 129.768 22.8536 128.63 19.4196C126.209 11.9232 118.727 7.68773 111.905 9.89917C110.323 10.4252 108.864 11.2663 107.615 12.3717C106.367 13.4771 105.355 14.824 104.641 16.3311C109.866 19.1198 115.001 22.0883 120.174 24.9894Z" fill="#FFD008"/>
<path d="M120.579 24.5621C122.828 25.814 124.987 27.2084 127.168 28.5877C128.371 25.6909 128.491 22.4575 127.505 19.4796C125.384 12.9352 118.825 9.20201 112.85 11.1361C111.477 11.5917 110.21 12.318 109.123 13.2722C108.037 14.2263 107.152 15.3889 106.523 16.6909C111.246 19.2547 115.931 21.9309 120.579 24.5621Z" stroke="#F7931E" stroke-width="0.74964" stroke-miterlimit="10"/>
<path d="M120.174 24.9894L120.879 25.4017C120.893 24.6976 120.677 24.0081 120.264 23.4377C119.856 22.8909 119.306 22.4658 118.675 22.2083C118.045 21.9534 117.42 21.7285 116.801 21.5336C116.246 21.37 115.714 21.1357 115.219 20.8364C115.025 20.7353 114.862 20.5822 114.75 20.3943C114.637 20.2064 114.579 19.9909 114.582 19.7719C114.585 19.5808 114.632 19.3929 114.719 19.2226C114.806 19.0524 114.931 18.9044 115.084 18.7899C115.454 18.5117 115.912 18.376 116.373 18.4076C116.821 18.4191 117.26 18.5346 117.655 18.7449C117.946 18.8796 118.218 19.0509 118.465 19.2547C118.595 19.3796 118.695 19.4871 118.765 19.577L120.466 17.8379L120.174 17.5155C119.871 17.2188 119.528 16.9665 119.154 16.7659C118.65 16.4743 118.104 16.262 117.535 16.1362V14.3295L115.144 14.2921V16.0837C114.178 16.2053 113.284 16.6552 112.61 17.3581C111.998 17.9931 111.649 18.8372 111.636 19.7195C111.628 19.8643 111.628 20.0094 111.636 20.1543C114.469 21.7885 117.318 23.3852 120.174 24.9894Z" fill="#EA8B24"/>
<path d="M90.863 144.782L92.1824 147.436L92.4822 145.352" fill="#FCD11A"/>
<path d="M110.276 147.492C118.399 143.577 123.34 136.993 121.313 132.786C119.285 128.579 111.057 128.342 102.934 132.257C94.8104 136.172 89.8688 142.756 91.8962 146.963C93.9237 151.17 102.152 151.407 110.276 147.492Z" fill="#FCD11A"/>
<path d="M120.279 130.606L121.321 132.773H120.279V130.606Z" fill="#FCD11A"/>
<path d="M109.239 145.332C117.362 141.418 122.304 134.834 120.277 130.627C118.249 126.42 110.02 126.183 101.897 130.097C93.774 134.012 88.8325 140.596 90.8599 144.803C92.8873 149.01 101.116 149.247 109.239 145.332Z" fill="#FEDE17"/>
<path d="M118.375 131.528C120.136 135.187 115.676 140.524 108.629 143.912C101.583 147.301 94.5587 147.533 92.7971 143.867C91.0354 140.202 95.4583 134.654 102.542 131.243C109.627 127.833 116.606 127.863 118.375 131.528Z" fill="#FEA500"/>
<path d="M106.246 136.079C107.288 137.383 107.265 138.47 105.496 139.827C104.786 140.463 103.919 140.898 102.984 141.085C102.049 141.272 101.081 141.205 100.181 140.891L98.7942 141.993L97.7747 141.409L99.184 140.292C98.785 139.984 98.4638 139.587 98.2464 139.133C98.0289 138.678 97.9213 138.179 97.9321 137.675L100.698 136.686C100.668 137.041 100.712 137.399 100.828 137.736C100.944 138.073 101.13 138.382 101.373 138.642L103.067 137.293C102.01 135.981 101.98 134.909 103.734 133.545C105.488 132.181 107.438 131.753 109.094 132.488L109.896 131.851L110.923 132.428L110.076 133.095C110.384 133.341 110.632 133.653 110.801 134.009C110.97 134.365 111.056 134.755 111.051 135.149L108.345 136.199C108.353 135.686 108.187 135.186 107.872 134.782L106.246 136.079ZM103.629 139.077C104.012 138.77 104.072 138.522 103.779 138.065L102.22 139.295C102.445 139.397 102.694 139.433 102.938 139.398C103.182 139.364 103.412 139.26 103.599 139.1M105.533 135.419L107.033 134.205C106.809 134.101 106.561 134.063 106.317 134.095C106.073 134.127 105.843 134.227 105.653 134.384C105.286 134.677 105.211 134.924 105.533 135.389" fill="#FFF039"/>
<path d="M76.7323 99.6536L75.4654 102.33L77.287 101.28" fill="#FCD11A"/>
<path d="M105.001 116.156C107.055 111.962 102.155 105.347 94.0563 101.382C85.9579 97.416 77.7279 97.6013 75.674 101.796C73.6202 105.99 78.5203 112.605 86.6188 116.57C94.7172 120.536 102.947 120.351 105.001 116.156Z" fill="#FCD11A"/>
<path d="M106.058 114.017L105.001 116.176L104.357 115.351L106.058 114.017Z" fill="#FCD11A"/>
<path d="M106.053 114.003C108.107 109.808 103.207 103.194 95.1084 99.228C87.01 95.2624 78.78 95.4477 76.7262 99.6419C74.6723 103.836 79.5725 110.451 87.6709 114.417C95.7693 118.382 103.999 118.197 106.053 114.003Z" fill="#FEDE17"/>
<path d="M104.154 113.087C102.37 116.738 95.4283 116.513 88.4117 113.087C81.395 109.661 76.8747 104.264 78.6663 100.613C80.458 96.9624 87.5571 97.0074 94.6037 100.463C101.65 103.919 105.946 109.436 104.154 113.087Z" fill="#FEA500"/>
<path d="M93.082 106.363C92.6996 107.99 91.8375 108.612 89.6561 108.125C88.7164 107.96 87.8382 107.546 87.113 106.927C86.3877 106.307 85.8421 105.504 85.5331 104.601L83.8089 104.189L83.6365 103.027L85.3906 103.447C85.3857 102.943 85.4991 102.445 85.7217 101.993C85.9444 101.542 86.2701 101.148 86.6725 100.846L89.1613 102.405C88.8626 102.6 88.6082 102.855 88.4145 103.155C88.2208 103.455 88.0921 103.792 88.0369 104.144L90.1434 104.646C90.5182 103.005 91.3503 102.315 93.5317 102.832C95.7132 103.349 97.2275 104.639 97.6772 106.393L98.6743 106.633L98.8542 107.795L97.8047 107.54C97.8016 107.933 97.7088 108.321 97.5334 108.673C97.3581 109.025 97.1047 109.332 96.7927 109.571L94.2964 108.072C94.7049 107.763 94.9958 107.324 95.121 106.828L93.082 106.363ZM89.1388 106.138C89.6111 106.25 89.851 106.138 90.0234 105.628L88.0893 105.163C88.1485 105.402 88.2744 105.619 88.4523 105.789C88.6302 105.959 88.8527 106.075 89.0939 106.123H89.1313M93.2169 105.373L95.1135 105.823C95.0565 105.583 94.9326 105.364 94.7561 105.192C94.5796 105.019 94.3578 104.9 94.1164 104.849H94.079C93.6217 104.736 93.3818 104.849 93.2169 105.373Z" fill="#FFF039"/>
<path d="M177.889 110.996C177.614 107.901 176.775 104.883 175.415 102.09C173.166 97.6446 170.025 111.303 170.025 111.303" fill="#F2AE16"/>
<path d="M167.825 126.167C175.744 123.081 179.881 114.718 177.064 107.489C174.247 100.26 165.543 96.9016 157.623 99.9878C149.703 103.074 145.567 111.436 148.384 118.665C151.201 125.894 159.905 129.253 167.825 126.167Z" fill="#EA8B24"/>
<path d="M166.747 122.008C174.667 118.921 178.804 110.559 175.987 103.33C173.169 96.1009 164.466 92.7423 156.546 95.8285C148.626 98.9147 144.49 107.277 147.307 114.506C150.124 121.735 158.828 125.094 166.747 122.008Z" fill="#FFD008"/>
<path d="M166.119 120.394C173.059 117.69 176.682 110.359 174.212 104.021C171.743 97.6833 164.115 94.7376 157.175 97.442C150.235 100.146 146.611 107.477 149.081 113.815C151.551 120.153 159.179 123.098 166.119 120.394Z" stroke="#F7931E" stroke-width="0.74964" stroke-miterlimit="10"/>
<path d="M168.998 111.61C168.804 112.026 168.551 112.413 168.248 112.757L167.919 113.095L165.932 111.363C166.022 111.283 166.132 111.168 166.262 111.018C166.468 110.739 166.636 110.434 166.764 110.111C166.965 109.669 167.06 109.187 167.041 108.702C167.046 108.2 166.871 107.713 166.547 107.33C166.414 107.17 166.246 107.043 166.056 106.959C165.866 106.874 165.66 106.835 165.452 106.843C165.216 106.853 164.988 106.929 164.792 107.061C164.596 107.193 164.441 107.377 164.343 107.592C164.051 108.147 163.832 108.736 163.691 109.346C163.521 110.031 163.318 110.721 163.083 111.415C162.845 112.114 162.419 112.733 161.854 113.207C161.22 113.728 160.425 114.013 159.605 114.017C158.589 114.078 157.586 113.757 156.794 113.117C155.956 112.409 155.385 111.436 155.175 110.358L153.218 110.433L153.113 107.81L155.002 107.735C155.061 107.224 155.174 106.722 155.34 106.235C155.474 105.814 155.65 105.408 155.864 105.021C156.035 104.726 156.223 104.44 156.427 104.166C156.563 103.976 156.713 103.795 156.876 103.627L157.079 103.454L158.96 105.201C158.86 105.296 158.73 105.431 158.571 105.606C158.309 105.955 158.097 106.338 157.941 106.745C157.685 107.317 157.564 107.941 157.589 108.567C157.576 109.18 157.78 109.777 158.166 110.254C158.328 110.442 158.531 110.591 158.76 110.689C158.989 110.786 159.237 110.83 159.485 110.816C159.721 110.804 159.949 110.727 160.144 110.595C160.34 110.463 160.495 110.28 160.595 110.066C160.89 109.508 161.11 108.913 161.247 108.297C161.412 107.607 161.612 106.918 161.846 106.228C162.087 105.533 162.512 104.916 163.076 104.444C163.71 103.923 164.504 103.638 165.325 103.634C166.281 103.592 167.217 103.916 167.941 104.541C168.744 105.225 169.287 106.165 169.478 107.203L171.412 107.128L171.517 109.751L169.56 109.826C169.465 110.446 169.275 111.048 168.998 111.61Z" fill="#EA8B24"/>
<path d="M110.399 131.596L109.132 134.272L110.953 133.223" fill="#FCD11A"/>
<path d="M138.659 148.103C140.713 143.908 135.813 137.293 127.714 133.328C119.616 129.362 111.386 129.547 109.332 133.742C107.278 137.936 112.178 144.551 120.277 148.516C128.375 152.482 136.605 152.297 138.659 148.103Z" fill="#FCD11A"/>
<path d="M139.725 145.959L138.668 148.118L138.023 147.301L139.725 145.959Z" fill="#FCD11A"/>
<path d="M139.719 145.941C141.773 141.747 136.872 135.132 128.774 131.167C120.676 127.201 112.446 127.386 110.392 131.581C108.338 135.775 113.238 142.39 121.336 146.355C129.435 150.321 137.665 150.136 139.719 145.941Z" fill="#FEDE17"/>
<path d="M137.828 145.029C136.044 148.68 129.102 148.455 122.086 145.029C115.069 141.603 110.549 136.206 112.34 132.555C114.132 128.905 121.231 128.95 128.278 132.405C135.324 135.861 139.612 141.379 137.828 145.029Z" fill="#FEA500"/>
<path d="M126.748 138.313C126.366 139.939 125.504 140.561 123.322 140.074C122.383 139.91 121.504 139.496 120.779 138.876C120.054 138.256 119.508 137.453 119.199 136.551L117.475 136.139L117.303 134.977L119.057 135.396C119.052 134.893 119.165 134.395 119.388 133.943C119.611 133.491 119.936 133.098 120.339 132.795L122.828 134.354C122.529 134.55 122.275 134.805 122.081 135.105C121.887 135.404 121.758 135.741 121.703 136.094L123.81 136.596C124.184 134.954 125.017 134.265 127.198 134.782C129.38 135.299 130.894 136.588 131.344 138.343L132.341 138.582L132.521 139.744L131.471 139.49C131.468 139.883 131.375 140.27 131.2 140.622C131.024 140.974 130.771 141.282 130.459 141.521L127.963 140.022C128.371 139.713 128.662 139.274 128.787 138.777L126.748 138.313ZM122.805 138.088C123.277 138.2 123.517 138.088 123.69 137.578L121.756 137.113C121.815 137.352 121.941 137.569 122.119 137.739C122.296 137.909 122.519 138.024 122.76 138.073H122.798M126.883 137.323L128.78 137.773C128.723 137.533 128.599 137.314 128.422 137.141C128.246 136.969 128.024 136.85 127.783 136.798H127.745C127.288 136.686 127.048 136.798 126.883 137.323Z" fill="#FFF039"/>
<path d="M69.6257 139.175L68.3588 141.843L70.1804 140.794" fill="#FCD11A"/>
<path d="M97.8944 155.674C99.9482 151.479 95.0481 144.865 86.9497 140.899C78.8512 136.933 70.6212 137.119 68.5674 141.313C66.5136 145.507 71.4137 152.122 79.5121 156.088C87.6105 160.053 95.8406 159.868 97.8944 155.674Z" fill="#FCD11A"/>
<path d="M98.9516 153.538L97.8946 155.689L97.2499 154.872L98.9516 153.538Z" fill="#FCD11A"/>
<path d="M98.9533 153.523C101.007 149.329 96.107 142.714 88.0085 138.749C79.9101 134.783 71.6801 134.968 69.6262 139.163C67.5724 143.357 72.4725 149.972 80.571 153.937C88.6694 157.903 96.8994 157.718 98.9533 153.523Z" fill="#FEDE17"/>
<path d="M97.0551 152.601C95.2709 156.251 88.3292 156.027 81.3126 152.601C74.296 149.175 69.7756 143.777 71.5673 140.127C73.3589 136.476 80.458 136.521 87.5046 139.977C94.5513 143.433 98.8392 148.95 97.0551 152.601Z" fill="#FEA500"/>
<path d="M85.9454 145.884C85.563 147.511 84.7009 148.133 82.5195 147.646C81.5798 147.481 80.7016 147.067 79.9764 146.448C79.2511 145.828 78.7055 145.025 78.3965 144.122L76.6723 143.71L76.4999 142.548L78.254 142.968C78.2491 142.464 78.3625 141.966 78.5851 141.515C78.8078 141.063 79.1335 140.669 79.5359 140.367L82.0247 141.926C81.726 142.121 81.4716 142.376 81.2779 142.676C81.0842 142.976 80.9556 143.313 80.9003 143.665L83.0068 144.167C83.3816 142.526 84.2137 141.836 86.3951 142.353C88.5766 142.87 90.0909 144.16 90.5407 145.914L91.5377 146.154L91.7176 147.316L90.6681 147.061C90.665 147.454 90.5722 147.842 90.3968 148.194C90.2215 148.546 89.9681 148.853 89.6561 149.092L87.1598 147.593C87.5683 147.284 87.8592 146.845 87.9844 146.349L85.9454 145.884ZM82.0022 145.659C82.4745 145.771 82.7144 145.659 82.8868 145.149L80.9527 144.685C81.012 144.923 81.1378 145.14 81.3157 145.31C81.4936 145.48 81.7161 145.596 81.9573 145.644H81.9947M86.0803 144.894L87.9769 145.344C87.9199 145.104 87.796 144.885 87.6195 144.713C87.443 144.54 87.2212 144.421 86.9799 144.37H86.9424C86.4851 144.257 86.2452 144.37 86.0803 144.894Z" fill="#FFF039"/>
<path d="M100.076 145.494L98.8092 148.163L100.631 147.121" fill="#FCD11A"/>
<path d="M128.348 162.001C130.402 157.807 125.501 151.192 117.403 147.226C109.305 143.261 101.075 143.446 99.0207 147.64C96.9669 151.835 101.867 158.449 109.965 162.415C118.064 166.381 126.294 166.195 128.348 162.001Z" fill="#FCD11A"/>
<path d="M129.402 159.857L128.345 162.016L127.7 161.192L129.402 159.857Z" fill="#FCD11A"/>
<path d="M129.4 159.84C131.454 155.646 126.554 149.031 118.455 145.065C110.357 141.1 102.127 141.285 100.073 145.479C98.0191 149.673 102.919 156.288 111.018 160.254C119.116 164.22 127.346 164.034 129.4 159.84Z" fill="#FEDE17"/>
<path d="M127.498 158.928C125.714 162.578 118.772 162.354 111.755 158.928C104.739 155.502 100.219 150.104 102.01 146.454C103.802 142.803 110.901 142.848 117.948 146.304C124.994 149.76 129.29 155.277 127.498 158.928Z" fill="#FEA500"/>
<path d="M116.426 152.226C116.043 153.853 115.181 154.475 113 153.988C112.06 153.823 111.182 153.409 110.457 152.79C109.732 152.17 109.186 151.367 108.877 150.464L107.153 150.052L106.98 148.89L108.734 149.31C108.729 148.806 108.843 148.308 109.066 147.856C109.288 147.405 109.614 147.011 110.016 146.709L112.505 148.268C112.206 148.463 111.952 148.718 111.758 149.018C111.565 149.318 111.436 149.655 111.381 150.007L113.487 150.509C113.862 148.868 114.694 148.178 116.876 148.695C119.057 149.212 120.571 150.502 121.021 152.256L122.018 152.496L122.198 153.658L121.148 153.403C121.145 153.796 121.053 154.184 120.877 154.536C120.702 154.888 120.449 155.195 120.136 155.434L117.64 153.935C118.049 153.626 118.34 153.187 118.465 152.691L116.426 152.226ZM112.483 152.001C112.955 152.113 113.195 152.001 113.367 151.491L111.433 151.026C111.492 151.265 111.618 151.482 111.796 151.652C111.974 151.822 112.196 151.938 112.438 151.986H112.475M116.561 151.236L118.457 151.686C118.4 151.446 118.276 151.227 118.1 151.055C117.923 150.882 117.702 150.763 117.46 150.712H117.43C116.973 150.599 116.733 150.712 116.568 151.236" fill="#FFF039"/>
<path d="M125.594 137.233L124.319 139.902L126.149 138.86" fill="#FCD11A"/>
<path d="M153.86 153.734C155.914 149.54 151.014 142.925 142.916 138.96C134.817 134.994 126.587 135.179 124.533 139.373C122.479 143.568 127.38 150.183 135.478 154.148C143.576 158.114 151.807 157.928 153.86 153.734Z" fill="#FCD11A"/>
<path d="M154.912 151.596L153.855 153.755L153.218 152.931L154.912 151.596Z" fill="#FCD11A"/>
<path d="M154.912 151.573C156.966 147.379 152.066 140.764 143.968 136.798C135.869 132.833 127.639 133.018 125.585 137.212C123.532 141.407 128.432 148.021 136.53 151.987C144.629 155.953 152.859 155.767 154.912 151.573Z" fill="#FEDE17"/>
<path d="M153.016 150.667C151.232 154.317 144.29 154.093 137.273 150.667C130.257 147.241 125.736 141.843 127.528 138.193C129.32 134.542 136.419 134.587 143.465 138.043C150.512 141.499 154.8 146.978 153.016 150.667Z" fill="#FEA500"/>
<path d="M141.944 143.98C141.561 145.607 140.699 146.229 138.518 145.742C137.578 145.577 136.7 145.163 135.975 144.543C135.249 143.924 134.704 143.121 134.395 142.218L132.67 141.806L132.498 140.644L134.252 141.064C134.247 140.56 134.361 140.062 134.583 139.61C134.806 139.159 135.132 138.765 135.534 138.463L138.023 140.022C137.732 140.216 137.484 140.468 137.294 140.762C137.104 141.056 136.977 141.386 136.921 141.731L139.027 142.233C139.402 140.592 140.234 139.902 142.416 140.419C144.597 140.936 146.112 142.226 146.561 143.98L147.558 144.22L147.738 145.382L146.689 145.127C146.686 145.52 146.593 145.908 146.417 146.26C146.242 146.612 145.989 146.919 145.677 147.158L143.18 145.659C143.589 145.35 143.88 144.911 144.005 144.415L141.944 143.98ZM138 143.755C138.473 143.867 138.713 143.755 138.885 143.245L136.951 142.78C137.01 143.019 137.136 143.236 137.314 143.406C137.492 143.576 137.714 143.692 137.955 143.74H137.993M142.078 142.99L143.975 143.44C143.918 143.2 143.794 142.981 143.618 142.808C143.441 142.636 143.219 142.517 142.978 142.466H142.918C142.461 142.353 142.221 142.466 142.056 142.99" fill="#FFF039"/>
<path d="M136.561 114.841L135.294 117.51L137.116 116.461" fill="#FCD11A"/>
<path d="M164.819 131.343C166.873 127.148 161.973 120.533 153.874 116.568C145.776 112.602 137.546 112.788 135.492 116.982C133.438 121.176 138.338 127.791 146.437 131.756C154.535 135.722 162.765 135.537 164.819 131.343Z" fill="#FCD11A"/>
<path d="M165.887 129.197L164.83 131.356L164.185 130.539L165.887 129.197Z" fill="#FCD11A"/>
<path d="M165.878 129.185C167.932 124.99 163.032 118.376 154.933 114.41C146.835 110.444 138.605 110.63 136.551 114.824C134.497 119.018 139.397 125.633 147.496 129.599C155.594 133.564 163.824 133.379 165.878 129.185Z" fill="#FEDE17"/>
<path d="M163.983 128.237C162.199 131.888 155.257 131.663 148.241 128.237C141.224 124.812 136.704 119.414 138.495 115.763C140.287 112.113 147.386 112.158 154.433 115.613C161.479 119.069 165.775 124.617 163.983 128.237Z" fill="#FEA500"/>
<path d="M152.911 121.551C152.528 123.177 151.666 123.8 149.485 123.312C148.545 123.148 147.667 122.734 146.942 122.114C146.217 121.494 145.671 120.691 145.362 119.789L143.638 119.377L143.465 118.215L145.219 118.635C145.214 118.131 145.328 117.633 145.551 117.181C145.773 116.729 146.099 116.336 146.501 116.033L148.99 117.593C148.691 117.788 148.437 118.043 148.243 118.343C148.05 118.642 147.921 118.979 147.866 119.332L149.972 119.834C150.347 118.192 151.179 117.503 153.361 118.02C155.542 118.537 157.056 119.826 157.506 121.581L158.503 121.82L158.66 122.99L157.611 122.735C157.608 123.128 157.515 123.516 157.34 123.868C157.164 124.22 156.911 124.527 156.599 124.767L154.103 123.267C154.511 122.958 154.802 122.519 154.927 122.023L152.911 121.551ZM148.968 121.326C149.44 121.438 149.68 121.326 149.852 120.816L147.918 120.351C147.977 120.59 148.103 120.807 148.281 120.977C148.459 121.147 148.681 121.263 148.923 121.311H148.96M153.046 120.561L154.942 121.011C154.885 120.771 154.761 120.552 154.585 120.379C154.408 120.207 154.187 120.088 153.945 120.036H153.908C153.45 119.924 153.211 120.036 153.046 120.561Z" fill="#FFF039"/>
<path d="M62.0468 106.58L60.7724 109.249L62.6016 108.207" fill="#FCD11A"/>
<path d="M90.3179 123.081C92.3718 118.887 87.4717 112.272 79.3732 108.306C71.2748 104.341 63.0448 104.526 60.9909 108.72C58.9371 112.915 63.8372 119.529 71.9357 123.495C80.0341 127.461 88.2641 127.275 90.3179 123.081Z" fill="#FCD11A"/>
<path d="M91.3728 120.943L90.3158 123.102L89.6711 122.278L91.3728 120.943Z" fill="#FCD11A"/>
<path d="M91.3701 120.928C93.4239 116.733 88.5238 110.118 80.4253 106.153C72.3269 102.187 64.0969 102.372 62.0431 106.567C59.9892 110.761 64.8894 117.376 72.9878 121.341C81.0862 125.307 89.3162 125.122 91.3701 120.928Z" fill="#FEDE17"/>
<path d="M89.4686 119.991C87.6845 123.642 80.7428 123.417 73.7262 119.991C66.7096 116.566 62.1892 111.168 63.9809 107.517C65.7725 103.867 72.8716 103.912 79.9182 107.367C86.9648 110.823 91.2528 116.356 89.4686 119.991Z" fill="#FEA500"/>
<path d="M78.3965 113.29C78.0142 114.916 77.1521 115.538 74.9706 115.051C74.031 114.887 73.1527 114.473 72.4275 113.853C71.7023 113.233 71.1567 112.43 70.8476 111.528L69.1234 111.116L68.951 109.954L70.7052 110.373C70.7002 109.87 70.8136 109.372 71.0363 108.92C71.2589 108.468 71.5846 108.075 71.9871 107.772L74.4759 109.331C74.1772 109.527 73.9227 109.782 73.729 110.082C73.5353 110.381 73.4067 110.718 73.3514 111.071L75.4579 111.573C75.8327 109.931 76.6648 109.242 78.8463 109.759C81.0277 110.276 82.542 111.565 82.9918 113.32L83.9888 113.559L84.1687 114.721L83.1192 114.467C83.1161 114.86 83.0233 115.247 82.848 115.599C82.6726 115.951 82.4193 116.259 82.1072 116.498L79.6109 114.999C80.0194 114.69 80.3103 114.251 80.4355 113.754L78.3965 113.29ZM74.4534 113.065C74.9257 113.177 75.1655 113.065 75.338 112.555L73.4039 112.09C73.4631 112.329 73.589 112.546 73.7668 112.716C73.9447 112.886 74.1672 113.001 74.4084 113.05H74.4459M78.5314 112.3L80.428 112.75C80.371 112.51 80.2471 112.291 80.0706 112.118C79.8941 111.946 79.6723 111.827 79.431 111.775H79.3935C78.9362 111.663 78.6963 111.775 78.5314 112.3Z" fill="#FFF039"/>
<path d="M72.7741 110.658C70.1601 112.332 67.8737 114.468 66.0274 116.963C63.1113 120.988 76.6873 117.495 76.6873 117.495" fill="#F2AE16"/>
<path d="M93.1995 133.286C98.3121 127.45 97.2738 118.178 90.8804 112.577C84.4871 106.976 75.1597 107.167 70.0471 113.003C64.9345 118.839 65.9728 128.11 72.3662 133.711C78.7595 139.312 88.0869 139.121 93.1995 133.286Z" fill="#EA8B24"/>
<path d="M90.0126 136.173C95.1252 130.337 94.0869 121.065 87.6936 115.464C81.3002 109.863 71.9728 110.054 66.8602 115.89C61.7476 121.726 62.7859 130.997 69.1793 136.598C75.5727 142.199 84.9001 142.008 90.0126 136.173Z" fill="#FFD008"/>
<path d="M88.5804 134.918C93.0628 129.801 92.1548 121.675 86.5525 116.767C80.9501 111.859 72.7748 112.028 68.2924 117.145C63.8101 122.261 64.718 130.388 70.3204 135.296C75.9228 140.204 84.098 140.034 88.5804 134.918Z" stroke="#F7931E" stroke-width="0.74964" stroke-miterlimit="10"/>
<path d="M77.4219 118.26C77.8801 118.235 78.3395 118.275 78.7863 118.38L79.2361 118.515L78.6139 121.078C78.4989 121.038 78.3465 120.993 78.1566 120.943C77.8107 120.898 77.4605 120.898 77.1146 120.943C76.6296 120.969 76.1573 121.108 75.7353 121.348C75.2874 121.575 74.9362 121.956 74.7457 122.42C74.6665 122.611 74.632 122.818 74.645 123.025C74.658 123.231 74.7181 123.432 74.8207 123.612C74.9407 123.816 75.1149 123.983 75.324 124.094C75.533 124.205 75.7688 124.256 76.0051 124.242C76.6322 124.244 77.257 124.166 77.8642 124.009C78.5489 123.845 79.2536 123.705 79.9782 123.59C80.7083 123.479 81.4549 123.569 82.1372 123.852C82.8957 124.177 83.5182 124.754 83.8988 125.486C84.4229 126.359 84.602 127.397 84.4011 128.395C84.1618 129.466 83.5641 130.423 82.7069 131.109L83.6739 132.81L81.425 134.115L80.488 132.473C80.0041 132.661 79.5015 132.797 78.9887 132.878C78.553 132.951 78.111 132.981 77.6693 132.968C77.3278 132.952 76.9874 132.917 76.6498 132.863C76.4165 132.83 76.186 132.78 75.9601 132.713L75.7128 132.615L76.3949 130.141L76.9347 130.306C77.3674 130.367 77.8063 130.367 78.2391 130.306C78.8669 130.269 79.4776 130.087 80.0232 129.774C80.5724 129.503 81.0079 129.046 81.2526 128.485C81.3453 128.254 81.3833 128.004 81.3638 127.756C81.3443 127.507 81.2678 127.267 81.1402 127.053C81.0199 126.849 80.8458 126.681 80.637 126.569C80.4282 126.456 80.1925 126.404 79.9557 126.416C79.3259 126.409 78.6981 126.488 78.0891 126.648C77.3995 126.818 76.6948 126.958 75.9751 127.068C75.2468 127.175 74.503 127.082 73.8237 126.798C73.0652 126.473 72.4426 125.896 72.062 125.164C71.5832 124.337 71.4384 123.358 71.6572 122.428C71.8924 121.399 72.4748 120.483 73.3064 119.834L72.3469 118.155L74.5958 116.85L75.5628 118.552C76.1639 118.36 76.7909 118.261 77.4219 118.26Z" fill="#EA8B24"/>
<path d="M127.528 104.399C124.423 104.561 121.374 105.291 118.532 106.55C114.034 108.612 127.528 112.27 127.528 112.27" fill="#F2AE16"/>
<path d="M134.138 134.154C141.464 131.598 145.133 123.021 142.334 114.995C139.534 106.97 131.326 102.536 124.001 105.091C116.675 107.646 113.006 116.224 115.805 124.249C118.605 132.275 126.813 136.709 134.138 134.154Z" fill="#EA8B24"/>
<path d="M129.934 135.082C137.26 132.527 140.929 123.949 138.13 115.924C135.33 107.898 127.122 103.464 119.796 106.019C112.47 108.575 108.801 117.152 111.601 125.178C114.4 133.203 122.608 137.638 129.934 135.082Z" fill="#FFD008"/>
<path d="M129.307 133.284C135.73 131.044 138.948 123.527 136.495 116.494C134.041 109.462 126.846 105.577 120.423 107.817C114.001 110.058 110.783 117.575 113.236 124.607C115.689 131.64 122.884 135.525 129.307 133.284Z" stroke="#F7931E" stroke-width="0.74964" stroke-miterlimit="10"/>
<path d="M127.82 113.305C128.228 113.501 128.607 113.753 128.945 114.054L129.267 114.399L127.46 116.318C127.38 116.228 127.271 116.116 127.131 115.981C126.857 115.766 126.558 115.587 126.239 115.449C125.806 115.232 125.328 115.119 124.844 115.119C124.343 115.097 123.851 115.257 123.457 115.569C123.294 115.695 123.162 115.858 123.071 116.044C122.98 116.229 122.933 116.434 122.933 116.64C122.939 116.88 123.013 117.114 123.145 117.314C123.278 117.514 123.464 117.673 123.682 117.772C124.225 118.096 124.807 118.348 125.414 118.522C126.094 118.717 126.776 118.944 127.46 119.204C128.149 119.467 128.753 119.913 129.207 120.494C129.714 121.146 129.979 121.954 129.957 122.78C129.981 123.796 129.626 124.785 128.96 125.554C128.22 126.358 127.228 126.886 126.149 127.053V129.01H123.525V127.12C123.013 127.044 122.51 126.914 122.026 126.731C121.608 126.581 121.206 126.39 120.826 126.161C120.535 125.98 120.255 125.782 119.987 125.569C119.8 125.425 119.625 125.267 119.462 125.096L119.297 124.894L121.111 123.08C121.201 123.185 121.331 123.32 121.501 123.485C121.841 123.757 122.217 123.982 122.618 124.152C123.182 124.43 123.803 124.574 124.432 124.572C125.042 124.605 125.645 124.422 126.134 124.054C126.327 123.899 126.483 123.702 126.588 123.477C126.694 123.252 126.746 123.006 126.741 122.758C126.734 122.517 126.66 122.283 126.528 122.081C126.395 121.88 126.21 121.72 125.991 121.618C125.448 121.291 124.863 121.039 124.252 120.868C123.567 120.679 122.885 120.454 122.205 120.194C121.52 119.93 120.918 119.484 120.466 118.904C119.959 118.252 119.694 117.444 119.717 116.618C119.708 115.663 120.065 114.74 120.714 114.039C121.425 113.259 122.383 112.748 123.427 112.592V110.658H126.051V112.615C126.673 112.752 127.27 112.985 127.82 113.305Z" fill="#EA8B24"/>
<path d="M103.704 65.1027L102.43 67.7789L104.259 66.7294" fill="#FCD11A"/>
<path d="M131.962 81.6172C134.016 77.4229 129.116 70.8081 121.017 66.8424C112.919 62.8768 104.689 63.0621 102.635 67.2564C100.581 71.4506 105.481 78.0655 113.58 82.0311C121.678 85.9967 129.908 85.8114 131.962 81.6172Z" fill="#FCD11A"/>
<path d="M133.023 79.4658L131.966 81.6248L131.321 80.8077L133.023 79.4658Z" fill="#FCD11A"/>
<path d="M133.014 79.456C135.068 75.2618 130.168 68.6469 122.07 64.6813C113.971 60.7157 105.741 60.901 103.687 65.0952C101.633 69.2895 106.534 75.9043 114.632 79.8699C122.73 83.8356 130.96 83.6503 133.014 79.456Z" fill="#FEDE17"/>
<path d="M131.126 78.5363C129.342 82.187 122.4 81.9621 115.384 78.5363C108.367 75.1104 103.847 69.713 105.638 66.0622C107.43 62.4115 114.529 62.4565 121.576 65.9123C128.622 69.3682 132.91 74.8855 131.126 78.5363Z" fill="#FEA500"/>
<path d="M120.046 71.8195C119.664 73.4462 118.802 74.0684 116.621 73.5811C115.681 73.4166 114.803 73.0028 114.077 72.3831C113.352 71.7634 112.807 70.9603 112.498 70.0578L110.773 69.6455L110.601 68.4836L112.355 68.9034C112.35 68.3997 112.464 67.9019 112.686 67.4501C112.909 66.9982 113.235 66.605 113.637 66.3021L116.126 67.8614C115.827 68.0564 115.573 68.312 115.379 68.6116C115.185 68.9112 115.057 69.2481 115.001 69.6005L117.108 70.1028C117.483 68.4611 118.315 67.7714 120.496 68.2887C122.678 68.8059 124.192 70.0953 124.642 71.8495L125.639 72.0893L125.819 73.2513L124.769 72.9964C124.766 73.3897 124.673 73.7771 124.498 74.1291C124.323 74.4812 124.069 74.7886 123.757 75.0279L121.261 73.5287C121.669 73.2198 121.96 72.7808 122.086 72.2843L120.046 71.8195ZM116.103 71.5946C116.576 71.707 116.816 71.5946 116.988 71.0848L115.054 70.6201C115.113 70.8588 115.239 71.0758 115.417 71.2457C115.595 71.4156 115.817 71.5314 116.058 71.5796H116.096M120.181 70.83L122.078 71.2797C122.021 71.0396 121.897 70.8206 121.721 70.6481C121.544 70.4756 121.322 70.3567 121.081 70.3052H121.044C120.586 70.1928 120.346 70.3052 120.181 70.83Z" fill="#FFF039"/>
<path d="M29.3175 139.729C37.4281 139.729 44.003 135.876 44.003 131.124C44.003 126.371 37.4281 122.518 29.3175 122.518C21.207 122.518 14.6321 126.371 14.6321 131.124C14.6321 135.876 21.207 139.729 29.3175 139.729Z" fill="#FCD11A"/>
<path d="M14.6321 131.124V128.642L16.2288 130.629L14.6321 131.124Z" fill="#FCD11A"/>
<path d="M43.9955 128.642V131.124H42.1364L43.5007 129.129L43.9955 128.642Z" fill="#FCD11A"/>
<path d="M29.3175 137.353C37.4281 137.353 44.003 133.5 44.003 128.747C44.003 123.994 37.4281 120.141 29.3175 120.141C21.207 120.141 14.6321 123.994 14.6321 128.747C14.6321 133.5 21.207 137.353 29.3175 137.353Z" fill="#FEDE17"/>
<path d="M29.34 135.966C36.1464 135.966 41.6641 132.734 41.6641 128.747C41.6641 124.76 36.1464 121.528 29.34 121.528C22.5336 121.528 17.0159 124.76 17.0159 128.747C17.0159 132.734 22.5336 135.966 29.34 135.966Z" fill="#FEA500"/>
<path d="M36.529 126.251C36.6324 126.452 36.6741 126.679 36.649 126.903L36.589 127.128H33.9128C33.9374 127.055 33.955 126.98 33.9653 126.903C33.9558 126.73 33.9015 126.562 33.8078 126.416C33.6566 126.159 33.4322 125.952 33.1631 125.824C32.7734 125.621 32.343 125.508 31.9038 125.494C31.4949 125.465 31.0848 125.529 30.7043 125.681C30.3295 125.841 30.1846 126.051 30.2695 126.311C30.3953 126.629 30.5898 126.916 30.8393 127.15C31.1278 127.446 31.3982 127.759 31.6489 128.087C31.7683 128.229 31.8451 128.401 31.8703 128.584C31.8956 128.767 31.8682 128.954 31.7913 129.122C31.4953 129.617 31.0246 129.984 30.4719 130.149C29.5709 130.524 28.6068 130.725 27.6308 130.741C26.5785 130.775 25.5283 130.625 24.5273 130.299L22.983 130.959L21.1764 130.082L22.6757 129.437C22.3955 129.26 22.143 129.043 21.926 128.792C21.7729 128.615 21.6535 128.412 21.5737 128.192C21.5233 128.034 21.493 127.871 21.4837 127.705C21.4656 127.593 21.4656 127.48 21.4837 127.368L21.5362 127.24H24.2199C24.1916 127.329 24.1691 127.419 24.1525 127.51C24.1649 127.729 24.2404 127.94 24.3699 128.117C24.5846 128.449 24.8923 128.71 25.2544 128.867C25.7394 129.112 26.271 129.25 26.8137 129.272C27.3024 129.303 27.7919 129.224 28.2455 129.04C28.6153 128.88 28.7553 128.67 28.6653 128.41C28.5332 128.089 28.3309 127.802 28.0731 127.57C27.7787 127.28 27.5056 126.97 27.256 126.641C27.1382 126.497 27.0649 126.321 27.0449 126.136C27.025 125.951 27.0592 125.765 27.1435 125.599C27.4621 125.104 27.9454 124.737 28.5079 124.564C29.3755 124.215 30.3015 124.035 31.2366 124.032C32.2513 123.99 33.2644 124.146 34.2201 124.489L35.7569 123.83L37.4361 124.744L35.8918 125.404C36.1702 125.63 36.389 125.921 36.529 126.251Z" fill="#FFF039"/>
<path d="M29.3175 135.037C37.4281 135.037 44.003 131.184 44.003 126.431C44.003 121.678 37.4281 117.825 29.3175 117.825C21.207 117.825 14.6321 121.678 14.6321 126.431C14.6321 131.184 21.207 135.037 29.3175 135.037Z" fill="#FCD11A"/>
<path d="M14.6321 126.431V123.942L16.2288 125.929L14.6321 126.431Z" fill="#FCD11A"/>
<path d="M43.9955 123.942V126.431H42.1364L43.5007 124.437L43.9955 123.942Z" fill="#FCD11A"/>
<path d="M29.3175 132.653C37.4281 132.653 44.003 128.8 44.003 124.047C44.003 119.294 37.4281 115.441 29.3175 115.441C21.207 115.441 14.6321 119.294 14.6321 124.047C14.6321 128.8 21.207 132.653 29.3175 132.653Z" fill="#FEDE17"/>
<path d="M29.34 131.266C36.1464 131.266 41.6641 128.034 41.6641 124.047C41.6641 120.06 36.1464 116.828 29.34 116.828C22.5336 116.828 17.0159 120.06 17.0159 124.047C17.0159 128.034 22.5336 131.266 29.34 131.266Z" fill="#FEA500"/>
<path d="M36.529 121.551C36.6324 121.751 36.6741 121.978 36.649 122.203L36.589 122.428H33.9128C33.9374 122.355 33.955 122.279 33.9653 122.203C33.9558 122.029 33.9015 121.862 33.8078 121.716C33.6566 121.458 33.4322 121.252 33.1631 121.123C32.7734 120.92 32.343 120.808 31.9038 120.793C31.4949 120.765 31.0848 120.829 30.7043 120.981C30.3295 121.141 30.1846 121.351 30.2695 121.611C30.3953 121.929 30.5898 122.216 30.8393 122.45C31.1278 122.746 31.3982 123.059 31.6489 123.387C31.7683 123.528 31.8451 123.701 31.8703 123.884C31.8956 124.067 31.8682 124.254 31.7913 124.422C31.4953 124.917 31.0246 125.283 30.4719 125.449C29.5709 125.824 28.6068 126.025 27.6308 126.041C26.5785 126.074 25.5283 125.925 24.5273 125.599L22.983 126.258L21.1764 125.381L22.6757 124.737C22.3955 124.56 22.143 124.342 21.926 124.092C21.7729 123.915 21.6535 123.712 21.5737 123.492C21.5233 123.334 21.493 123.17 21.4837 123.005C21.4656 122.893 21.4656 122.779 21.4837 122.668L21.5362 122.54H24.2199C24.1916 122.629 24.1691 122.719 24.1525 122.81C24.1649 123.029 24.2404 123.24 24.3699 123.417C24.5846 123.749 24.8923 124.009 25.2544 124.167C25.7394 124.411 26.271 124.549 26.8137 124.572C27.3024 124.603 27.7919 124.524 28.2455 124.339C28.6153 124.179 28.7553 123.969 28.6653 123.71C28.5332 123.389 28.3309 123.102 28.0731 122.87C27.7787 122.58 27.5056 122.27 27.256 121.94C27.1382 121.796 27.0649 121.621 27.0449 121.436C27.025 121.251 27.0592 121.064 27.1435 120.898C27.4621 120.404 27.9454 120.037 28.5079 119.864C29.3755 119.515 30.3015 119.335 31.2366 119.332C32.2258 119.297 33.2125 119.45 34.1452 119.781L35.6819 119.122L37.3611 120.036L35.8169 120.696C36.1237 120.915 36.3689 121.209 36.529 121.551Z" fill="#FFF039"/>
<path d="M29.3175 129.939C37.4281 129.939 44.003 126.086 44.003 121.333C44.003 116.58 37.4281 112.727 29.3175 112.727C21.207 112.727 14.6321 116.58 14.6321 121.333C14.6321 126.086 21.207 129.939 29.3175 129.939Z" fill="#FCD11A"/>
<path d="M14.6321 121.333V118.852L16.2288 120.838L14.6321 121.333Z" fill="#FCD11A"/>
<path d="M43.9955 118.852V121.333H42.1364L43.5007 119.339L43.9955 118.852Z" fill="#FCD11A"/>
<path d="M29.3175 127.563C37.4281 127.563 44.003 123.71 44.003 118.957C44.003 114.204 37.4281 110.351 29.3175 110.351C21.207 110.351 14.6321 114.204 14.6321 118.957C14.6321 123.71 21.207 127.563 29.3175 127.563Z" fill="#FEDE17"/>
<path d="M29.34 126.176C36.1464 126.176 41.6641 122.944 41.6641 118.957C41.6641 114.97 36.1464 111.738 29.34 111.738C22.5336 111.738 17.0159 114.97 17.0159 118.957C17.0159 122.944 22.5336 126.176 29.34 126.176Z" fill="#FEA500"/>
<path d="M36.529 116.453C36.6324 116.654 36.6741 116.881 36.649 117.105L36.589 117.33H33.9128C33.9374 117.257 33.955 117.182 33.9653 117.105C33.9558 116.932 33.9015 116.764 33.8078 116.618C33.6566 116.361 33.4322 116.155 33.1631 116.026C32.7734 115.823 32.343 115.71 31.9038 115.696C31.4949 115.667 31.0848 115.731 30.7043 115.883C30.3295 116.043 30.1846 116.253 30.2695 116.513C30.3953 116.831 30.5898 117.118 30.8393 117.353C31.1278 117.648 31.3982 117.961 31.6489 118.29C31.7683 118.431 31.8451 118.603 31.8703 118.786C31.8956 118.969 31.8682 119.156 31.7913 119.324C31.4953 119.819 31.0246 120.186 30.4719 120.351C29.5709 120.727 28.6068 120.928 27.6308 120.943C26.5785 120.977 25.5283 120.827 24.5273 120.501L22.983 121.161L21.1764 120.284L22.6757 119.639C22.3955 119.462 22.143 119.245 21.926 118.994C21.7729 118.818 21.6535 118.614 21.5737 118.395C21.5233 118.237 21.493 118.073 21.4837 117.907C21.4656 117.796 21.4656 117.682 21.4837 117.57L21.5362 117.443H24.2199C24.1916 117.531 24.1691 117.621 24.1525 117.712C24.1649 117.932 24.2404 118.142 24.3699 118.32C24.5846 118.651 24.8923 118.912 25.2544 119.069C25.7394 119.314 26.271 119.452 26.8137 119.474C27.3024 119.506 27.7919 119.426 28.2455 119.242C28.6153 119.082 28.7553 118.872 28.6653 118.612C28.5332 118.291 28.3309 118.004 28.0731 117.772C27.7787 117.483 27.5056 117.172 27.256 116.843C27.1382 116.699 27.0649 116.524 27.0449 116.339C27.025 116.154 27.0592 115.967 27.1435 115.801C27.4621 115.306 27.9454 114.94 28.5079 114.766C29.3755 114.418 30.3015 114.237 31.2366 114.234C32.2258 114.2 33.2125 114.352 34.1452 114.684L35.6819 114.024L37.3611 114.939L35.8169 115.598C36.1237 115.818 36.3689 116.112 36.529 116.453Z" fill="#FFF039"/>
<path d="M29.3175 125.299C37.4281 125.299 44.003 121.446 44.003 116.693C44.003 111.94 37.4281 108.087 29.3175 108.087C21.207 108.087 14.6321 111.94 14.6321 116.693C14.6321 121.446 21.207 125.299 29.3175 125.299Z" fill="#FCD11A"/>
<path d="M14.6321 116.693V114.212L16.2288 116.198L14.6321 116.693Z" fill="#FCD11A"/>
<path d="M43.9955 114.212V116.693H42.1364L43.5007 114.699L43.9955 114.212Z" fill="#FCD11A"/>
<path d="M29.3175 122.922C37.4281 122.922 44.003 119.069 44.003 114.317C44.003 109.564 37.4281 105.711 29.3175 105.711C21.207 105.711 14.6321 109.564 14.6321 114.317C14.6321 119.069 21.207 122.922 29.3175 122.922Z" fill="#FEDE17"/>
<path d="M29.34 121.536C36.1464 121.536 41.6641 118.304 41.6641 114.317C41.6641 110.33 36.1464 107.098 29.34 107.098C22.5336 107.098 17.0159 110.33 17.0159 114.317C17.0159 118.304 22.5336 121.536 29.34 121.536Z" fill="#FEA500"/>
<path d="M36.529 111.82C36.6324 112.021 36.6741 112.248 36.649 112.472L36.589 112.697H33.9128C33.9374 112.624 33.955 112.549 33.9653 112.472C33.9558 112.299 33.9015 112.131 33.8078 111.985C33.6566 111.728 33.4322 111.522 33.1631 111.393C32.7734 111.19 32.343 111.077 31.9038 111.063C31.4949 111.034 31.0848 111.098 30.7043 111.251C30.3295 111.41 30.1846 111.62 30.2695 111.88C30.3953 112.199 30.5898 112.485 30.8393 112.72C31.1278 113.016 31.3982 113.328 31.6489 113.657C31.7683 113.798 31.8451 113.97 31.8703 114.153C31.8956 114.337 31.8682 114.523 31.7913 114.691C31.4953 115.187 31.0246 115.553 30.4719 115.718C29.5709 116.094 28.6068 116.295 27.6308 116.311C26.5785 116.344 25.5283 116.194 24.5273 115.868L22.983 116.528L21.1764 115.651L22.6757 115.006C22.3955 114.829 22.143 114.612 21.926 114.362C21.7729 114.185 21.6535 113.982 21.5737 113.762C21.5233 113.604 21.493 113.44 21.4837 113.275C21.4656 113.163 21.4656 113.049 21.4837 112.937L21.5362 112.81H24.2199C24.1916 112.898 24.1691 112.988 24.1525 113.08C24.1649 113.299 24.2404 113.51 24.3699 113.687C24.5846 114.018 24.8923 114.279 25.2544 114.437C25.7394 114.681 26.271 114.819 26.8137 114.841C27.3024 114.873 27.7919 114.793 28.2455 114.609C28.6153 114.449 28.7553 114.239 28.6653 113.979C28.5332 113.659 28.3309 113.372 28.0731 113.14C27.7787 112.85 27.5056 112.539 27.256 112.21C27.1382 112.066 27.0649 111.891 27.0449 111.706C27.025 111.521 27.0592 111.334 27.1435 111.168C27.4621 110.673 27.9454 110.307 28.5079 110.134C29.3755 109.785 30.3015 109.604 31.2366 109.601C32.2258 109.567 33.2125 109.72 34.1452 110.051L35.6819 109.391L37.3611 110.306L35.8169 110.966C36.1237 111.185 36.3689 111.479 36.529 111.82Z" fill="#FFF039"/>
<path d="M21.1914 117.892C29.302 117.892 35.8769 114.039 35.8769 109.287C35.8769 104.534 29.302 100.681 21.1914 100.681C13.0809 100.681 6.50598 104.534 6.50598 109.287C6.50598 114.039 13.0809 117.892 21.1914 117.892Z" fill="#FCD11A"/>
<path d="M6.51343 109.286V106.798L8.11016 108.784L6.51343 109.286Z" fill="#FCD11A"/>
<path d="M35.8769 106.798V109.286H34.0178L35.3821 107.292L35.8769 106.798Z" fill="#FCD11A"/>
<path d="M21.1914 115.509C29.302 115.509 35.8769 111.656 35.8769 106.903C35.8769 102.15 29.302 98.2968 21.1914 98.2968C13.0809 98.2968 6.50598 102.15 6.50598 106.903C6.50598 111.656 13.0809 115.509 21.1914 115.509Z" fill="#FEDE17"/>
<path d="M21.2214 114.122C28.0278 114.122 33.5455 110.89 33.5455 106.903C33.5455 102.916 28.0278 99.6836 21.2214 99.6836C14.415 99.6836 8.89734 102.916 8.89734 106.903C8.89734 110.89 14.415 114.122 21.2214 114.122Z" fill="#FEA500"/>
<path d="M28.4105 104.406C28.5138 104.607 28.5555 104.834 28.5304 105.059L28.4704 105.283H25.7942C25.8188 105.21 25.8364 105.135 25.8467 105.059C25.8372 104.885 25.783 104.717 25.6893 104.571C25.5381 104.314 25.3136 104.108 25.0446 103.979C24.6548 103.776 24.2244 103.663 23.7852 103.649C23.3763 103.62 22.9663 103.684 22.5858 103.837C22.2109 103.997 22.066 104.206 22.151 104.466C22.2767 104.785 22.4713 105.071 22.7207 105.306C23.0093 105.602 23.2796 105.915 23.5303 106.243C23.6497 106.384 23.7266 106.556 23.7518 106.74C23.777 106.923 23.7496 107.109 23.6727 107.277C23.3775 107.764 22.913 108.124 22.3684 108.289C21.4673 108.665 20.5032 108.866 19.5272 108.882C18.4749 108.915 17.4248 108.766 16.4237 108.439L14.8794 109.099L13.0728 108.222L14.5721 107.577C14.292 107.4 14.0394 107.183 13.8225 106.933C13.6693 106.756 13.5499 106.553 13.4701 106.333C13.4197 106.175 13.3895 106.011 13.3802 105.846C13.362 105.734 13.362 105.62 13.3802 105.508L13.4326 105.381H16.1164C16.088 105.469 16.0655 105.559 16.0489 105.651C16.0614 105.87 16.1369 106.081 16.2663 106.258C16.4811 106.589 16.7887 106.85 17.1509 107.008C17.6358 107.252 18.1674 107.39 18.7101 107.412C19.1988 107.444 19.6883 107.364 20.1419 107.18C20.5117 107.02 20.6517 106.81 20.5617 106.55C20.4297 106.23 20.2273 105.943 19.9695 105.711C19.702 105.428 19.4541 105.127 19.2274 104.811C19.1096 104.667 19.0363 104.492 19.0163 104.307C18.9963 104.122 19.0306 103.935 19.1149 103.769C19.4324 103.283 19.9096 102.922 20.4643 102.75C21.3319 102.401 22.2579 102.22 23.193 102.217C24.1822 102.183 25.1689 102.336 26.1016 102.667L27.6383 102.007L29.3175 102.922L27.7733 103.582C28.0487 103.801 28.2673 104.084 28.4105 104.406Z" fill="#FFF039"/>
</svg>
