<svg width="283" height="208" viewBox="0 0 283 208" fill="none" xmlns="http://www.w3.org/2000/svg">
<path d="M145.479 205.759L277.082 127.983C281.272 125.632 284.866 121.766 280.782 119.234L148.704 43.1088C146.722 41.8805 143.716 41.0742 141.696 42.2498L3.54447 122.429C-0.645367 124.863 -1.39893 131.661 2.7909 134.095L128.132 205.638C130.763 207.165 133.747 207.978 136.789 208C139.831 208.021 142.826 207.248 145.479 205.759Z" fill="white"/>
<path d="M38.3593 97.0115L56.6861 107.531L118.448 71.7293L171.793 102.731L103.912 142.836L143.354 166.008L211.273 126.83L246.314 148.299" stroke="#ECECEC" stroke-width="6.3" stroke-miterlimit="10"/>
<path d="M42.3457 67.2757V100.335C42.3457 102.271 45.36 102.279 45.36 100.335V67.2757C45.36 65.3466 42.3457 65.3466 42.3457 67.2757Z" fill="#C9C9C9"/>
<path d="M79.5568 25.4075V61.6541C79.5594 62.4591 79.3471 63.2503 78.9417 63.9457C78.5364 64.6412 77.9526 65.2159 77.2509 65.6104L15.8954 100.274C15.4144 100.545 14.8709 100.685 14.319 100.681C13.767 100.677 13.2257 100.529 12.7489 100.25C12.272 99.9725 11.8762 99.5745 11.6006 99.0963C11.3251 98.618 11.1794 98.0759 11.1781 97.5239V63.1989C11.1791 62.0171 11.4864 60.8558 12.0702 59.8282C12.654 58.8007 13.4942 57.9421 14.5089 57.3362L73.6564 22.0316C74.251 21.6803 74.9279 21.4927 75.6185 21.4879C76.3091 21.483 76.9887 21.6612 77.5881 22.0041C78.1875 22.3471 78.6854 22.8427 79.0312 23.4405C79.377 24.0382 79.5584 24.7169 79.5568 25.4075Z" fill="#FF413B"/>
<path d="M134.53 48.7681V81.8271C134.53 83.7638 137.544 83.7713 137.544 81.8271V48.7681C137.544 46.8088 134.53 46.8013 134.53 48.7681Z" fill="#C9C9C9"/>
<path d="M170.256 2.95872V39.8835C170.257 40.9901 169.963 42.077 169.406 43.033C168.848 43.9889 168.047 44.7797 167.084 45.3243L106.655 79.4534C106.165 79.7294 105.611 79.8724 105.048 79.8682C104.486 79.864 103.934 79.7126 103.448 79.4292C102.962 79.1459 102.559 78.7403 102.278 78.2527C101.997 77.7652 101.849 77.2127 101.847 76.6501V41.9182C101.847 40.8882 102.114 39.8758 102.623 38.9802C103.131 38.0845 103.864 37.3364 104.749 36.809L165.735 0.404131C166.189 0.141814 166.704 0.00252741 167.228 3.40731e-05C167.753 -0.00245927 168.269 0.131927 168.725 0.389915C169.182 0.647902 169.563 1.02056 169.832 1.47107C170.1 1.92159 170.246 2.43436 170.256 2.95872Z" fill="#FF413B"/>
<path d="M137.031 129.814V162.873C137.031 164.81 140.046 164.817 140.046 162.873V129.814C140.046 127.893 137.031 127.893 137.031 129.814Z" fill="#C9C9C9"/>
<path d="M172.728 78.9108V116.16C172.732 117.232 172.45 118.287 171.911 119.214C171.372 120.141 170.595 120.908 169.661 121.435L109.707 155.345C109.16 155.655 108.541 155.816 107.912 155.812C107.283 155.807 106.666 155.638 106.123 155.321C105.58 155.003 105.129 154.549 104.817 154.003C104.504 153.458 104.34 152.839 104.342 152.21V118.368C104.341 117.262 104.627 116.175 105.173 115.213C105.718 114.252 106.504 113.448 107.454 112.882L168.418 76.4918C168.848 76.2344 169.339 76.0952 169.84 76.0883C170.342 76.0814 170.836 76.207 171.274 76.4524C171.711 76.6979 172.076 77.0545 172.331 77.4862C172.587 77.9178 172.723 78.4093 172.728 78.9108Z" fill="#FF413B"/>
<path d="M238.009 108.654V141.713C238.009 143.65 241.024 143.657 241.024 141.713V108.654C241.024 106.71 238.009 106.71 238.009 108.654Z" fill="#C9C9C9"/>
<path d="M272.199 62.6488V99.6942C272.199 100.719 271.927 101.726 271.41 102.612C270.894 103.497 270.152 104.23 269.26 104.736L209.901 138.299C209.281 138.65 208.58 138.831 207.868 138.826C207.156 138.821 206.457 138.629 205.842 138.27C205.227 137.911 204.716 137.397 204.362 136.78C204.007 136.162 203.82 135.462 203.82 134.75V103.146C203.813 101.604 204.208 100.088 204.965 98.7454C205.722 97.403 206.816 96.2808 208.138 95.4893L267.595 60.0716C268.052 59.7874 268.578 59.6311 269.116 59.6189C269.655 59.6067 270.187 59.739 270.657 60.0021C271.127 60.2652 271.518 60.6495 271.789 61.115C272.06 61.5805 272.202 62.1101 272.199 62.6488Z" fill="#CEE831"/>
<path d="M43.8528 106.348C47.1573 106.348 49.8361 103.669 49.8361 100.365C49.8361 97.0604 47.1573 94.3816 43.8528 94.3816C40.5483 94.3816 37.8694 97.0604 37.8694 100.365C37.8694 103.669 40.5483 106.348 43.8528 106.348Z" fill="#C9C9C9"/>
<path d="M136.037 85.5196C139.341 85.5196 142.02 82.8408 142.02 79.5363C142.02 76.2318 139.341 73.5529 136.037 73.5529C132.732 73.5529 130.053 76.2318 130.053 79.5363C130.053 82.8408 132.732 85.5196 136.037 85.5196Z" fill="#C9C9C9"/>
<path d="M138.539 167.704C141.843 167.704 144.522 165.025 144.522 161.72C144.522 158.416 141.843 155.737 138.539 155.737C135.234 155.737 132.555 158.416 132.555 161.72C132.555 165.025 135.234 167.704 138.539 167.704Z" fill="#C9C9C9"/>
<path d="M239.517 146.348C242.821 146.348 245.5 143.669 245.5 140.364C245.5 137.06 242.821 134.381 239.517 134.381C236.212 134.381 233.533 137.06 233.533 140.364C233.533 143.669 236.212 146.348 239.517 146.348Z" fill="#C9C9C9"/>
</svg>
