<svg width="311" height="235" viewBox="0 0 311 235" fill="none" xmlns="http://www.w3.org/2000/svg">
<path d="M162.479 223.082L294.082 145.306C298.272 142.955 301.866 139.09 297.782 136.558L165.704 60.4322C163.722 59.2039 160.716 58.3975 158.696 59.5731L20.5444 139.753C16.3546 142.187 15.601 148.984 19.7909 151.418L145.132 222.962C147.763 224.488 150.747 225.302 153.789 225.323C156.831 225.344 159.826 224.572 162.479 223.082Z" fill="white"/>
<path d="M121.43 94.1853C121.189 93.6319 120.38 94.1152 120.652 94.6608C121.609 96.82 123.498 98.4882 124.283 100.718C124.936 102.573 124.75 104.545 122.728 105.449C121.515 105.987 119.875 105.496 118.693 105.129C118.118 104.95 117.869 105.862 118.444 106.034C120.971 106.813 124.54 106.977 125.442 103.851C126.491 100.125 122.783 97.2332 121.43 94.1853Z" fill="#FF413B"/>
<path d="M144.351 93.1798C144.211 92.4705 143.13 92.7667 143.27 93.476C143.674 95.5728 143.27 98.6284 141.178 99.7743C141.029 99.8582 140.87 99.9237 140.704 99.9692C140.828 99.7276 140.897 99.4613 140.906 99.1897C140.869 98.6138 140.702 98.054 140.417 97.5527C140.225 97.2164 140.056 96.8674 139.911 96.5082C140.318 96.1093 140.751 95.7394 141.21 95.4013C141.777 94.9648 141.21 93.9827 140.642 94.427L139.903 95.0194C139.846 94.9518 139.773 94.8986 139.692 94.8642C139.61 94.8297 139.521 94.815 139.433 94.821C139.344 94.8271 139.259 94.8538 139.182 94.8991C139.106 94.9444 139.041 95.0069 138.994 95.0818C138.785 95.4026 138.69 95.7838 138.722 96.1652C138.376 96.5709 138.113 97.0393 137.944 97.545C136.49 98.4803 136.856 101.271 139.001 101.099C139.096 101.09 139.189 101.074 139.281 101.053C139.46 101.131 139.648 101.186 139.841 101.216C141.318 101.435 142.679 100.273 143.41 99.0961C144.456 97.3133 144.792 95.2003 144.351 93.1798ZM138.947 98.34H139.009C139.101 98.3317 139.188 98.2938 139.257 98.232C139.325 98.1702 139.372 98.0878 139.39 97.9971C139.445 98.1062 139.491 98.2153 139.538 98.3244C139.659 98.5486 139.716 98.8019 139.702 99.0565C139.689 99.311 139.605 99.5568 139.46 99.7665C139.261 99.5922 139.109 99.3697 139.019 99.12C138.929 98.8704 138.904 98.6019 138.947 98.34Z" fill="#FF413B"/>
<path d="M143.231 65.2739C143.799 64.8218 142.998 64.0267 142.453 64.4944C142.04 64.8429 141.701 65.2711 141.455 65.7535C141.21 66.2359 141.064 66.7628 141.026 67.3029C140.987 67.843 141.057 68.3853 141.232 68.8977C141.406 69.4102 141.682 69.8823 142.041 70.2861C142.523 70.8239 143.317 70.0288 142.819 69.5066C142.558 69.2065 142.361 68.8561 142.239 68.4768C142.118 68.0976 142.076 67.6975 142.114 67.3011C142.153 66.9048 142.272 66.5205 142.464 66.1719C142.656 65.8233 142.917 65.5177 143.231 65.2739Z" fill="#FF413B"/>
<path d="M167.893 77.9485H167.31C167.124 77.6679 166.921 77.4029 166.735 77.169C166.299 76.6 165.328 77.169 165.763 77.738L165.887 77.9017C164.286 77.8923 162.688 78.0569 161.121 78.3928C160.414 78.5409 160.717 79.6322 161.417 79.4763C162.614 79.2238 163.832 79.0803 165.055 79.0476C164.435 79.7042 164.077 80.5675 164.053 81.4718C164.076 81.9419 164.272 82.3865 164.605 82.719C164.587 82.8341 164.605 82.952 164.657 83.0563C164.709 83.1606 164.792 83.2461 164.894 83.3009C164.997 83.3557 165.114 83.3772 165.229 83.3623C165.344 83.3475 165.452 83.297 165.538 83.2179C165.69 83.238 165.844 83.238 165.996 83.2179C166.531 83.1467 167.032 82.914 167.432 82.5505C167.832 82.1871 168.112 81.7103 168.235 81.1834C168.362 80.552 168.295 79.8967 168.041 79.3048L168.36 78.806C168.41 78.7212 168.437 78.6249 168.438 78.5265C168.44 78.4281 168.416 78.331 168.369 78.2446C168.322 78.1582 168.254 78.0855 168.17 78.0336C168.087 77.9817 167.991 77.9524 167.893 77.9485ZM165.289 81.5498C165.215 81.2058 165.256 80.847 165.405 80.5286C165.705 79.946 166.117 79.4292 166.618 79.0086H166.657L166.774 79.2191L165.289 81.5498Z" fill="#FF413B"/>
<path d="M145.595 132.131C145.268 131.484 144.304 132.053 144.623 132.7C145.058 133.573 145.703 134.797 145.011 135.701C144.32 136.605 143.666 136.036 143.495 135.233C143.262 134.111 143.394 132.973 142.827 131.928C142.477 131.289 141.505 131.858 141.855 132.497C142.632 133.916 141.762 136.644 143.791 137.213C144.286 137.312 144.8 137.232 145.242 136.988C145.684 136.744 146.026 136.352 146.209 135.88C146.784 134.649 146.17 133.269 145.595 132.131Z" fill="#FF413B"/>
<path d="M109.876 127.735C109.231 127.4 108.663 128.374 109.309 128.709C110.693 129.426 112.87 130.541 112.364 132.458C112.108 133.433 111.245 133.901 110.397 133.238C109.827 132.624 109.439 131.863 109.278 131.04C109.238 130.896 109.144 130.774 109.015 130.7C108.886 130.626 108.733 130.607 108.59 130.646C108.446 130.685 108.324 130.78 108.251 130.91C108.177 131.039 108.158 131.192 108.197 131.336C108.539 132.474 109.052 133.854 110.172 134.454C110.637 134.705 111.178 134.778 111.693 134.659C112.208 134.54 112.662 134.237 112.971 133.807C114.93 131.141 111.96 128.834 109.876 127.735Z" fill="#FF413B"/>
<path d="M115.638 79.9674C115.218 79.3828 114.246 79.9674 114.666 80.5364C114.979 80.9205 115.206 81.3682 115.33 81.8487C115.455 82.3292 115.473 82.831 115.385 83.3194C115.297 83.8078 115.104 84.2713 114.82 84.6777C114.536 85.0842 114.167 85.424 113.739 85.6736C113.311 85.9233 112.835 86.0768 112.342 86.1236C111.849 86.1705 111.352 86.1095 110.885 85.945C110.417 85.7804 109.992 85.5162 109.636 85.1705C109.281 84.8248 109.005 84.406 108.827 83.9428C108.523 83.288 107.552 83.8571 107.855 84.5119C108.103 85.1113 108.477 85.6506 108.95 86.0934C109.424 86.5362 109.986 86.8725 110.6 87.0795C111.214 87.2865 111.864 87.3595 112.508 87.2936C113.153 87.2278 113.775 87.0245 114.335 86.6976C114.894 86.3706 115.377 85.9275 115.752 85.398C116.126 84.8684 116.383 84.2647 116.506 83.6273C116.629 82.9898 116.614 82.3335 116.463 81.7023C116.312 81.0711 116.028 80.4795 115.63 79.9674H115.638Z" fill="#FF413B"/>
<path d="M161.79 200.96C194.759 200.96 221.486 185.591 221.486 166.632C221.486 147.672 194.759 132.303 161.79 132.303C128.821 132.303 102.094 147.672 102.094 166.632C102.094 185.591 128.821 200.96 161.79 200.96Z" fill="#758800"/>
<path opacity="0.21" d="M161.79 200.96C194.759 200.96 221.486 185.591 221.486 166.632C221.486 147.672 194.759 132.303 161.79 132.303C128.821 132.303 102.094 147.672 102.094 166.632C102.094 185.591 128.821 200.96 161.79 200.96Z" fill="black"/>
<path d="M161.79 196.806C194.759 196.806 221.486 181.436 221.486 162.477C221.486 143.517 194.759 128.148 161.79 128.148C128.821 128.148 102.094 143.517 102.094 162.477C102.094 181.436 128.821 196.806 161.79 196.806Z" fill="#758800"/>
<path d="M161.79 192.183C191.14 192.183 214.932 178.503 214.932 161.627C214.932 144.751 191.14 131.071 161.79 131.071C132.44 131.071 108.648 144.751 108.648 161.627C108.648 178.503 132.44 192.183 161.79 192.183Z" fill="#758800"/>
<path d="M161.79 192.183C190.543 192.183 213.851 178.779 213.851 162.243C213.851 145.707 190.543 132.303 161.79 132.303C133.037 132.303 109.729 145.707 109.729 162.243C109.729 178.779 133.037 192.183 161.79 192.183Z" fill="#CEE831"/>
<path d="M157.172 40.8758C175.715 53.145 176.679 84.3247 159.387 110.485C142.096 136.644 111.96 149.529 94.5906 135.693C74.0102 119.324 75.5885 93.4604 92.8723 67.2616C110.156 41.0629 138.667 28.6377 157.172 40.8758Z" fill="#758800"/>
<path d="M159.096 110.585C175.938 85.1045 176.65 55.8514 160.686 45.2462C144.723 34.641 118.13 46.6996 101.288 72.1799C84.4469 97.6601 83.7351 126.913 99.6984 137.518C115.662 148.124 142.255 136.065 159.096 110.585Z" fill="#CEE831"/>
<path d="M154.962 107.035C167.99 87.2856 168.123 64.3606 155.258 55.8301C142.393 47.2997 121.402 56.3941 108.374 76.1431C95.346 95.8921 95.2135 118.817 108.078 127.348C120.943 135.878 141.934 126.784 154.962 107.035Z" fill="white"/>
<path d="M131.079 45.1552C129.02 45.1729 127.001 44.5789 125.279 43.4481C119.836 39.8313 118.849 31.6388 123.102 25.1924C127.354 18.746 135.285 16.4309 140.727 20.0633C146.17 23.6802 147.157 31.8726 142.905 38.319C139.997 42.6686 135.425 45.1552 131.079 45.1552ZM134.873 22.0588C131.763 22.0588 128.389 23.9452 126.212 27.2502C123.102 31.9818 123.591 37.8436 127.331 40.3224C131.071 42.8011 136.661 40.9693 139.771 36.2378C142.881 31.5063 142.391 25.6445 138.652 23.1657C137.528 22.4329 136.213 22.0505 134.873 22.0666V22.0588Z" fill="#CEE831"/>
<path d="M148.207 61.5012L131.296 94.5361L132.61 93.9983L117.06 87.8169C115.669 87.2634 115.062 89.524 116.438 90.0696L131.988 96.251C132.236 96.3187 132.499 96.3028 132.736 96.2055C132.974 96.1083 133.173 95.9352 133.302 95.7132L150.213 62.6782C150.897 61.3453 148.883 60.1605 148.199 61.5012H148.207Z" fill="#42210B"/>
<path d="M135.425 59.2952C132.766 59.2952 132.766 63.4343 135.425 63.4343C138.084 63.4343 138.084 59.2952 135.425 59.2952Z" fill="#606060"/>
<path d="M130.153 121.351C127.494 121.351 127.494 125.49 130.153 125.49C132.812 125.49 132.812 121.351 130.153 121.351Z" fill="#606060"/>
<path d="M158.462 86.8425C155.803 86.8425 155.803 90.9816 158.462 90.9816C161.121 90.9816 161.121 86.8425 158.462 86.8425Z" fill="#606060"/>
<path d="M105.74 92.9615C103.081 92.9615 103.081 97.1007 105.74 97.1007C108.399 97.1007 108.383 92.9615 105.74 92.9615Z" fill="#606060"/>
<path d="M215.212 121.397C215.212 121.397 215.212 135.195 223.22 135.195C228.321 135.195 233.04 134.828 232.714 121.397" fill="#D67527"/>
<path d="M223.967 123.814C228.797 123.814 232.713 122.746 232.713 121.429C232.713 120.111 228.797 119.043 223.967 119.043C219.136 119.043 215.22 120.111 215.22 121.429C215.22 122.746 219.136 123.814 223.967 123.814Z" fill="#843703"/>
<path d="M221.471 123.829H221.525C223.308 123.985 225.1 123.985 226.882 123.829C227.189 123.368 227.352 122.825 227.349 122.27V103.937C227.349 103.195 227.055 102.483 226.531 101.958C226.008 101.433 225.298 101.138 224.558 101.138H223.415C222.674 101.138 221.964 101.433 221.441 101.958C220.917 102.483 220.623 103.195 220.623 103.937V122.341C220.627 122.805 220.748 123.26 220.973 123.666C221.145 123.699 221.313 123.754 221.471 123.829Z" fill="#419F00"/>
<path d="M223.982 109.775H229.362C229.739 109.425 230.039 109 230.243 108.528C230.448 108.056 230.553 107.546 230.552 107.031C230.552 105.27 231.641 103.851 232.885 104.475C234.129 105.098 234.284 110.422 232.885 111.81C231.485 113.197 226.431 113.135 226.431 113.135" fill="#419F00"/>
<path d="M188.497 143.099V170.895H190.55L190.993 142.374" fill="#474747"/>
<path d="M200.167 132.404L204.28 162.625H202.228L197.928 133.526" fill="#474747"/>
<path d="M157.008 155.508C157.008 155.508 155.29 161.175 154.069 162.625C152.849 164.075 144.467 166.522 144.584 167.879C144.7 169.235 146.139 170.895 149.575 170.895C153.012 170.895 160.336 166.998 160.336 166.998C160.336 166.998 163.835 166.483 164.433 165.291C165.032 164.098 164.433 156.023 164.433 156.023" fill="#843703"/>
<path d="M167.326 161.627C167.326 161.627 166.68 167.575 165.46 169.017C164.239 170.459 157.545 174.847 157.685 176.172C157.825 177.498 160.414 178.378 163.843 178.378C167.271 178.378 171.758 172.595 171.758 172.595C171.758 172.595 174.766 170.537 175.365 169.352C175.964 168.167 175.863 160.325 175.863 160.325" fill="#843703"/>
<path d="M201.287 103.672C200.743 105.231 197.672 128.382 197.672 128.382L194.562 127.345L198.589 103.547" fill="#474747"/>
<path d="M200.167 132.404L200.23 128.67L196.925 129.8L197.928 133.526" fill="#A9CBF8"/>
<path d="M192.719 126.62C192.719 126.62 200.999 129.808 200.167 132.942C199.335 136.075 192.727 143.753 188.505 143.075C184.283 142.397 179.105 138.718 179.105 138.718" fill="#009925"/>
<path opacity="0.21" d="M192.719 126.62C192.719 126.62 200.999 129.808 200.167 132.942C199.335 136.075 192.727 143.753 188.505 143.075C184.283 142.397 179.105 138.718 179.105 138.718" fill="black"/>
<path d="M192.719 122.801C192.719 122.801 200.999 125.989 200.167 129.122C199.335 132.256 192.727 139.934 188.505 139.256C184.283 138.578 179.105 134.898 179.105 134.898" fill="#009925"/>
<path d="M196 93.6943C196 93.6943 204 95.6976 204.809 100.312C205.618 104.927 205.851 113.439 194.499 110.134C183.148 106.829 188.505 98.2777 188.505 98.2777" fill="#009925"/>
<path d="M176.632 112.044C176.632 112.044 160.258 123.307 158.151 129.044C156.044 134.781 154.652 157.379 154.652 157.379C154.652 157.379 160.383 160.949 167.046 158.844L172.061 133.238C172.061 133.238 183.964 128.14 186.056 121.764C188.147 115.388 185.325 103.5 185.325 103.5" fill="#D67527"/>
<path d="M185.822 118.669C185.822 118.669 169.425 129.972 167.318 135.678C165.211 141.384 163.819 164.012 163.819 164.012C163.819 164.012 169.549 167.582 176.213 165.478L181.227 139.871C181.227 139.871 193.131 134.774 195.222 128.397C197.314 122.021 194.492 110.134 194.492 110.134" fill="#D67527"/>
<path d="M194.779 103.36C194.732 103.014 194.803 102.662 194.979 102.361C195.155 102.06 195.427 101.827 195.751 101.7C195.751 99.1949 195.751 96.6901 195.751 94.1853C195.653 92.6679 195.528 91.1505 195.378 89.6331C192.501 87.0997 182.712 83.4517 182.712 83.4517C181.388 83.0898 179.995 83.0604 178.657 83.3663C177.318 83.6722 176.076 84.3039 175.039 85.2056C171.369 88.3235 171.4 116.074 173.717 118.622C176.034 121.171 191.335 120.369 194.585 118.708C194.888 118.511 195.119 118.221 195.246 117.882C195.681 113.049 195.152 108.201 194.779 103.36Z" fill="#8CC63F"/>
<path d="M175.031 85.2134C175.031 85.2134 171.734 88.7523 170.731 97.1084C169.954 103.656 169.674 108.738 169.674 108.738L165.304 113.603C165.46 116.721 166.774 120.314 169.308 122.029C172.309 119.87 175.777 116.572 175.855 115.972L175.031 85.2134Z" fill="#8CC63F"/>
<path d="M184.944 104.599L173.281 106.096C173.281 106.096 165.312 106.314 164.783 107.585C164.099 109.222 165.405 113.579 167.03 113.821C168.655 114.062 173.157 110.64 173.763 110.407C174.37 110.173 184.462 111.732 187.059 110.407C189.656 109.081 184.944 104.599 184.944 104.599Z" fill="#FFE0CE"/>
<path d="M174.65 109.081C174.65 109.619 174.65 110.071 174.65 110.453H176.267C176.378 110.445 176.49 110.445 176.601 110.453C176.78 109.183 176.827 107.211 175.824 105.776L173.717 106.096C173.717 106.096 174.564 106.805 174.65 109.081Z" fill="#D67527"/>
<path d="M172.908 104.708L173.001 106.197C173.001 106.197 174.378 107.187 177.239 106.073V104.708" fill="#350011"/>
<path d="M175.077 105.55C176.271 105.55 177.239 105.173 177.239 104.709C177.239 104.244 176.271 103.867 175.077 103.867C173.884 103.867 172.916 104.244 172.916 104.709C172.916 105.173 173.884 105.55 175.077 105.55Z" fill="#D67527"/>
<path d="M189.663 100.226C189.663 100.226 180.193 104.124 179.097 104.327C178.001 104.529 179.097 111.849 179.097 111.849C179.097 111.849 194.492 110.134 195.938 108.731C197.384 107.328 197.843 94.2867 195.938 90.1632C194.033 86.0397 186.934 83.4751 186.934 83.4751C186.934 83.4751 177.091 88.838 181.196 92.7667" fill="#8CC63F"/>
<path d="M166.268 117.212L165.95 117.118C166.004 117.274 161.44 123.783 161.44 123.783C161.44 123.783 159.419 127.392 160.087 128.382C160.756 129.372 163.928 124.484 164.581 124.632C165.234 124.78 163.244 126.41 163.804 127.251C164.363 128.093 167.753 122.816 167.753 122.816L168.601 121.569C168.015 120.809 167.527 119.979 167.147 119.098C166.772 118.511 166.477 117.877 166.268 117.212Z" fill="#FFE0CE"/>
<path d="M174.937 91.5585L174.79 103.547C174.79 103.65 174.831 103.75 174.904 103.823C174.977 103.896 175.075 103.937 175.178 103.937C175.282 103.937 175.38 103.896 175.453 103.823C175.526 103.75 175.567 103.65 175.567 103.547L175.715 91.5585C175.715 91.4551 175.674 91.356 175.601 91.2829C175.528 91.2098 175.429 91.1687 175.326 91.1687C175.223 91.1687 175.124 91.2098 175.051 91.2829C174.978 91.356 174.937 91.4551 174.937 91.5585Z" fill="#5A8417"/>
<path d="M194.655 108.926C191.231 110.37 187.681 111.492 184.05 112.277C183.231 112.454 182.407 112.613 181.577 112.753C180.092 113.002 179.579 112.948 179.159 111.404C178.669 109.612 178.856 107.32 178.794 105.441C181.818 104.747 185.473 103.929 188.217 102.456C190.262 101.357 189.772 98.0984 189.687 96.1575C189.687 95.6586 188.909 95.6586 188.909 96.1575C189.03 97.235 189.03 98.3227 188.909 99.4002C188.474 101.879 187.059 102.082 185.185 102.736C183.03 103.509 180.834 104.162 178.607 104.693C178.553 104.702 178.502 104.725 178.458 104.759C178.415 104.793 178.381 104.837 178.358 104.888C178.309 104.886 178.26 104.894 178.214 104.912C178.168 104.93 178.127 104.957 178.092 104.993C178.058 105.028 178.031 105.07 178.014 105.117C177.997 105.163 177.99 105.213 177.993 105.262C178.094 107.678 177.861 110.656 178.498 112.995C178.778 114.031 179.385 113.86 180.349 113.727C185.338 113.009 190.216 111.658 194.865 109.705C195.324 109.518 195.152 108.762 194.655 108.926Z" fill="#5A8417"/>
<path d="M195.254 109.105L195.331 116.627L187.634 111.552L195.254 109.105Z" fill="#5A8417"/>
<path d="M174.059 110.57L173.981 118.786C173.981 118.89 174.022 118.989 174.095 119.062C174.168 119.135 174.267 119.176 174.37 119.176C174.473 119.176 174.572 119.135 174.645 119.062C174.718 118.989 174.759 118.89 174.759 118.786L174.836 110.57C174.836 110.467 174.795 110.368 174.722 110.295C174.65 110.222 174.551 110.181 174.448 110.181C174.344 110.181 174.246 110.222 174.173 110.295C174.1 110.368 174.059 110.467 174.059 110.57Z" fill="#5A8417"/>
<path d="M175.847 122.387C172.984 124.397 170.318 126.676 167.886 129.192C165.506 131.679 165.506 134.774 165.11 138.055C164.103 146.441 163.526 154.873 163.384 163.319C163.384 163.422 163.425 163.521 163.498 163.594C163.571 163.667 163.669 163.708 163.773 163.708C163.876 163.708 163.975 163.667 164.047 163.594C164.12 163.521 164.161 163.422 164.161 163.319C164.291 155.898 164.75 148.493 165.537 141.103C165.729 139.321 165.942 137.541 166.175 135.764C166.478 133.464 166.61 131.741 168.204 129.98C170.626 127.382 173.321 125.056 176.244 123.042C176.648 122.777 176.259 122.099 175.847 122.387Z" fill="#350011"/>
<path d="M176.267 79.3048C176.267 79.3048 171.237 77.9017 172.232 75.0254C173.227 72.1491 174.751 73.0143 174.751 73.0143C174.893 72.1428 175.311 71.3405 175.945 70.7268C176.578 70.113 177.392 69.7206 178.265 69.6079C179.19 69.4198 180.147 69.4808 181.041 69.7848C181.934 70.0888 182.731 70.6249 183.35 71.3384C183.881 70.9519 184.514 70.731 185.169 70.7032C185.825 70.6755 186.474 70.8422 187.035 71.1825C189.243 72.3128 189.243 76.7715 189.243 76.7715C189.243 76.7715 187.199 83.2646 186.569 83.7168C185.939 84.1689 186.569 81.5342 185.675 80.3026C184.781 79.071 180.279 77.2625 176.267 79.3048Z" fill="#D67527"/>
<path d="M175.948 77.6367C176.267 78.6812 178.662 88.6587 183.156 87.5363C187.65 86.4138 186.88 79.5231 186.88 79.5231C186.88 79.5231 183.334 78.8137 182.907 77.2859C182.479 75.7581 182.604 75.0722 180.574 74.7838C178.545 74.4953 175.42 75.8984 175.948 77.6367Z" fill="#FFE0CE"/>
<path d="M178.195 83.5375C178.195 83.5375 178.879 82.758 179.323 82.8437C179.766 82.9295 181.056 83.4985 181.709 83.1867C182.363 82.8749 182.611 82.1578 183.342 82.0408C184.073 81.9239 185.441 79.0788 185.441 79.0788L186.888 79.5231C186.965 79.5231 186.934 84.3326 186.048 85.3927C185.162 86.4528 184.959 88.4327 183.187 88.8302C181.414 89.2278 178.195 86.3826 178.195 83.5375Z" fill="#D67527"/>
<path d="M186.079 80.2168C186.079 80.2168 185.861 77.8784 187.02 78.2993C188.178 78.7202 186.872 81.3705 186.872 81.3705L186.079 80.2168Z" fill="#FFE0CE"/>
</svg>
