<svg width="130" height="49" viewBox="0 0 130 49" fill="none" xmlns="http://www.w3.org/2000/svg">
<path d="M41.1027 5.1327C43.7699 5.1327 45.8176 5.60591 47.2458 6.55233C48.674 7.48154 49.3881 9.01301 49.3881 11.1467C49.3881 13.2977 48.6654 14.855 47.22 15.8186C45.7746 16.765 43.7097 17.2382 41.0253 17.2382H39.7605V23.2264H35.734V5.59731C36.6115 5.42523 37.5408 5.30478 38.5216 5.23595C39.5024 5.16712 40.3628 5.1327 41.1027 5.1327ZM41.3608 8.56561C41.0683 8.56561 40.7758 8.57421 40.4832 8.59142C40.2079 8.60863 39.967 8.62584 39.7605 8.64305V13.8053H41.0253C42.4191 13.8053 43.4688 13.616 44.1743 13.2375C44.8798 12.8589 45.2325 12.1534 45.2325 11.1209C45.2325 10.6219 45.1379 10.2089 44.9486 9.88199C44.7765 9.55504 44.5184 9.29693 44.1743 9.10765C43.8473 8.90116 43.4429 8.7635 42.9611 8.69467C42.4793 8.60863 41.9459 8.56561 41.3608 8.56561ZM61.4815 23.2264C61.2922 22.607 61.0771 21.9703 60.8362 21.3164C60.6125 20.6625 60.3888 20.0086 60.1651 19.3547H53.1961C52.9724 20.0086 52.7401 20.6625 52.4991 21.3164C52.2755 21.9703 52.069 22.607 51.8797 23.2264H47.6982C48.3693 21.2992 49.006 19.5182 49.6083 17.8835C50.2105 16.2488 50.7956 14.7087 51.3635 13.2633C51.9485 11.8178 52.5164 10.4498 53.067 9.15927C53.6348 7.8515 54.2199 6.57814 54.8222 5.3392H58.6681C59.2531 6.57814 59.8296 7.8515 60.3974 9.15927C60.9653 10.4498 61.5331 11.8178 62.101 13.2633C62.686 14.7087 63.2797 16.2488 63.8819 17.8835C64.4842 19.5182 65.1209 21.2992 65.792 23.2264H61.4815ZM56.6548 9.39157C56.5687 9.64969 56.4397 10.0024 56.2676 10.4498C56.0955 10.8972 55.8976 11.4135 55.6739 11.9985C55.4502 12.5836 55.2007 13.2289 54.9254 13.9344C54.6673 14.6399 54.4006 15.3798 54.1253 16.1541H59.2101C58.9348 15.3798 58.6681 14.6399 58.4099 13.9344C58.1518 13.2289 57.9023 12.5836 57.6614 11.9985C57.4377 11.4135 57.2398 10.8972 57.0678 10.4498C56.8957 10.0024 56.758 9.64969 56.6548 9.39157ZM77.5887 23.2264C77.2273 22.6414 76.7971 22.0133 76.2981 21.3422C75.8163 20.6539 75.2829 19.9742 74.6978 19.3031C74.13 18.6148 73.5363 17.9609 72.9168 17.3415C72.2974 16.7048 71.6779 16.1455 71.0584 15.6637V23.2264H67.0319V5.3392H71.0584V12.1018C72.1081 11.0005 73.1577 9.85618 74.2074 8.66886C75.2743 7.46433 76.2637 6.35444 77.1757 5.3392H81.9508C80.7291 6.78463 79.4987 8.17844 78.2598 9.52063C77.0381 10.8628 75.7475 12.2136 74.3881 13.573C75.8163 14.7603 77.1929 16.1713 78.5179 17.8061C79.8601 19.4408 81.1421 21.2476 82.3638 23.2264H77.5887ZM90.6106 12.6954C91.3334 11.4737 92.0217 10.2519 92.6755 9.03021C93.3294 7.80848 93.9317 6.57814 94.4823 5.3392H98.9219C97.9411 7.26644 96.9258 9.13346 95.8761 10.9403C94.8265 12.747 93.7166 14.5624 92.5465 16.3864V23.2264H88.5199V16.4381C87.3498 14.6141 86.2313 12.7901 85.1645 10.9661C84.1148 9.14206 83.0995 7.26644 82.1187 5.3392H86.7906C87.3412 6.57814 87.9349 7.80848 88.5715 9.03021C89.2082 10.2519 89.8879 11.4737 90.6106 12.6954ZM109.449 23.2264C109.26 22.607 109.045 21.9703 108.804 21.3164C108.58 20.6625 108.357 20.0086 108.133 19.3547H101.164C100.94 20.0086 100.708 20.6625 100.467 21.3164C100.243 21.9703 100.037 22.607 99.8474 23.2264H95.666C96.3371 21.2992 96.9737 19.5182 97.576 17.8835C98.1783 16.2488 98.7633 14.7087 99.3312 13.2633C99.9162 11.8178 100.484 10.4498 101.035 9.15927C101.603 7.8515 102.188 6.57814 102.79 5.3392H106.636C107.221 6.57814 107.797 7.8515 108.365 9.15927C108.933 10.4498 109.501 11.8178 110.069 13.2633C110.654 14.7087 111.247 16.2488 111.85 17.8835C112.452 19.5182 113.089 21.2992 113.76 23.2264H109.449ZM104.622 9.39157C104.536 9.64969 104.407 10.0024 104.235 10.4498C104.063 10.8972 103.865 11.4135 103.642 11.9985C103.418 12.5836 103.168 13.2289 102.893 13.9344C102.635 14.6399 102.368 15.3798 102.093 16.1541H107.178C106.902 15.3798 106.636 14.6399 106.378 13.9344C106.12 13.2289 105.87 12.5836 105.629 11.9985C105.405 11.4135 105.208 10.8972 105.035 10.4498C104.863 10.0024 104.726 9.64969 104.622 9.39157Z" fill="white"/>
<path d="M12.9432 8.11158C14.9435 8.11158 16.4793 8.46649 17.5505 9.1763C18.6217 9.87321 19.1572 11.0218 19.1572 12.6221C19.1572 14.2353 18.6152 15.4033 17.5311 16.126C16.447 16.8358 14.8984 17.1907 12.8851 17.1907H11.9365V21.6819H8.9166V8.46004C9.57478 8.33098 10.2717 8.24064 11.0073 8.18902C11.7429 8.13739 12.3882 8.11158 12.9432 8.11158ZM13.1367 10.6863C12.9174 10.6863 12.698 10.6927 12.4786 10.7056C12.2721 10.7185 12.0914 10.7314 11.9365 10.7443V14.616H12.8851C13.9304 14.616 14.7177 14.4741 15.2468 14.1901C15.776 13.9062 16.0405 13.3771 16.0405 12.6028C16.0405 12.2285 15.9695 11.9188 15.8276 11.6735C15.6985 11.4283 15.5049 11.2348 15.2468 11.0928C15.0016 10.9379 14.6983 10.8347 14.337 10.7831C13.9756 10.7185 13.5755 10.6863 13.1367 10.6863Z" fill="white"/>
<mask id="path-3-inside-1_17_2804" fill="white">
<path d="M0 4.30189C0 1.92602 1.92602 0 4.30189 0H26.8868V24.7358C26.8868 27.1117 24.9608 29.0377 22.5849 29.0377H0V4.30189Z"/>
</mask>
<path d="M0 4.30189C0 1.92602 1.92602 0 4.30189 0H26.8868V24.7358C26.8868 27.1117 24.9608 29.0377 22.5849 29.0377H0V4.30189Z" stroke="url(#paint0_linear_17_2804)" stroke-width="10" stroke-linecap="round" stroke-linejoin="round" mask="url(#path-3-inside-1_17_2804)"/>
<path d="M1.34506 44V35.06H2.18506L7.42906 42.584H7.10506V35.06H8.06506V44H7.22506L1.98106 36.428H2.30506V44H1.34506ZM14.393 44.144C13.769 44.144 13.185 44.032 12.641 43.808C12.105 43.576 11.633 43.256 11.225 42.848C10.817 42.432 10.497 41.944 10.265 41.384C10.033 40.816 9.917 40.196 9.917 39.524C9.917 38.852 10.033 38.236 10.265 37.676C10.497 37.108 10.817 36.62 11.225 36.212C11.633 35.796 12.105 35.476 12.641 35.252C13.185 35.028 13.769 34.916 14.393 34.916C15.017 34.916 15.597 35.032 16.133 35.264C16.677 35.488 17.153 35.808 17.561 36.224C17.969 36.632 18.289 37.116 18.521 37.676C18.753 38.236 18.869 38.852 18.869 39.524C18.869 40.196 18.753 40.816 18.521 41.384C18.289 41.944 17.969 42.432 17.561 42.848C17.153 43.256 16.677 43.576 16.133 43.808C15.597 44.032 15.017 44.144 14.393 44.144ZM14.393 43.244C14.913 43.244 15.385 43.148 15.809 42.956C16.241 42.764 16.613 42.496 16.925 42.152C17.237 41.808 17.477 41.412 17.645 40.964C17.821 40.516 17.909 40.036 17.909 39.524C17.909 39.02 17.821 38.544 17.645 38.096C17.477 37.648 17.237 37.252 16.925 36.908C16.613 36.564 16.241 36.296 15.809 36.104C15.385 35.912 14.913 35.816 14.393 35.816C13.873 35.816 13.397 35.912 12.965 36.104C12.541 36.296 12.173 36.564 11.861 36.908C11.549 37.252 11.305 37.648 11.129 38.096C10.961 38.544 10.877 39.02 10.877 39.524C10.877 40.036 10.961 40.516 11.129 40.964C11.305 41.412 11.549 41.808 11.861 42.152C12.173 42.496 12.545 42.764 12.977 42.956C13.409 43.148 13.881 43.244 14.393 43.244ZM24.3032 44V35.96H21.8312V35.06H27.7112V35.96H25.2632V44H24.3032ZM28.8958 44V35.06H29.8558V44H28.8958ZM31.9662 44V35.06H32.8062L36.1662 39.932H35.6982L39.0462 35.06H39.8862V44H38.9262V36.356L39.2382 36.476L35.9502 41.24H35.9022L32.6262 36.476L32.9262 36.356V44H31.9662ZM41.9974 44V35.06H47.7574V35.96H42.9574V39.068H47.5174V39.968H42.9574V43.1H47.7574V44H41.9974ZM53.0281 44L50.4601 35.06H51.4321L53.6521 43.064H53.4481L55.7281 35.06H56.7481L59.0161 43.064H58.8001L61.0321 35.06H62.0041L59.4361 44H58.4161L56.1241 35.96H56.3401L54.0481 44H53.0281ZM61.7922 44L65.0562 35.06H66.0882L69.3522 44H68.3442L67.5762 41.816H63.5802L62.8002 44H61.7922ZM63.8922 40.916H67.2402L65.4282 35.78H65.7162L63.8922 40.916ZM73.4391 44.144C72.8711 44.144 72.3551 44.036 71.8911 43.82C71.4271 43.604 71.0351 43.316 70.7151 42.956C70.3951 42.588 70.1671 42.184 70.0311 41.744L70.8951 41.42C71.1031 42.028 71.4271 42.492 71.8671 42.812C72.3071 43.124 72.8311 43.28 73.4391 43.28C73.8231 43.28 74.1591 43.22 74.4471 43.1C74.7431 42.972 74.9711 42.796 75.1311 42.572C75.2911 42.348 75.3711 42.088 75.3711 41.792C75.3711 41.352 75.2511 41.012 75.0111 40.772C74.7711 40.532 74.4271 40.348 73.9791 40.22L72.3711 39.74C71.7391 39.556 71.2511 39.248 70.9071 38.816C70.5711 38.384 70.4031 37.892 70.4031 37.34C70.4031 36.868 70.5191 36.452 70.7511 36.092C70.9831 35.724 71.2991 35.436 71.6991 35.228C72.1071 35.02 72.5671 34.916 73.0791 34.916C73.6151 34.916 74.0951 35.016 74.5191 35.216C74.9511 35.408 75.3151 35.664 75.6111 35.984C75.9071 36.304 76.1191 36.66 76.2471 37.052L75.4071 37.388C75.2151 36.86 74.9151 36.46 74.5071 36.188C74.1071 35.916 73.6351 35.78 73.0911 35.78C72.7471 35.78 72.4431 35.84 72.1791 35.96C71.9231 36.08 71.7231 36.252 71.5791 36.476C71.4351 36.7 71.3631 36.964 71.3631 37.268C71.3631 37.636 71.4791 37.968 71.7111 38.264C71.9431 38.552 72.2991 38.768 72.7791 38.912L74.1951 39.332C74.8991 39.54 75.4311 39.84 75.7911 40.232C76.1511 40.624 76.3311 41.116 76.3311 41.708C76.3311 42.188 76.2071 42.612 75.9591 42.98C75.7191 43.34 75.3791 43.624 74.9391 43.832C74.5071 44.04 74.0071 44.144 73.4391 44.144ZM79.7329 44V35.96H77.2609V35.06H83.1409V35.96H80.6929V44H79.7329ZM84.3255 44V35.06H90.0855V35.96H85.2855V39.068H89.8455V39.968H85.2855V43.1H90.0855V44H84.3255ZM92.7883 44L96.0523 35.06H97.0843L100.348 44H99.3403L98.5723 41.816H94.5763L93.7963 44H92.7883ZM94.8883 40.916H98.2363L96.4243 35.78H96.7123L94.8883 40.916ZM105.257 44.144C104.625 44.144 104.045 44.032 103.517 43.808C102.989 43.576 102.529 43.256 102.137 42.848C101.753 42.432 101.453 41.944 101.237 41.384C101.021 40.824 100.913 40.208 100.913 39.536C100.913 38.864 101.021 38.248 101.237 37.688C101.453 37.128 101.753 36.64 102.137 36.224C102.529 35.808 102.989 35.488 103.517 35.264C104.045 35.032 104.625 34.916 105.257 34.916C105.865 34.916 106.409 35.024 106.889 35.24C107.377 35.456 107.785 35.736 108.113 36.08C108.449 36.416 108.689 36.772 108.833 37.148L107.969 37.568C107.745 37.024 107.401 36.596 106.937 36.284C106.473 35.972 105.913 35.816 105.257 35.816C104.601 35.816 104.017 35.972 103.505 36.284C102.993 36.596 102.593 37.032 102.305 37.592C102.017 38.144 101.873 38.792 101.873 39.536C101.873 40.272 102.017 40.92 102.305 41.48C102.593 42.04 102.993 42.476 103.505 42.788C104.017 43.092 104.601 43.244 105.257 43.244C105.841 43.244 106.365 43.116 106.829 42.86C107.301 42.604 107.673 42.256 107.945 41.816C108.217 41.368 108.353 40.856 108.353 40.28V39.788L108.785 40.22H105.257V39.38H109.313V40.124C109.313 40.708 109.209 41.248 109.001 41.744C108.793 42.232 108.505 42.656 108.137 43.016C107.769 43.376 107.337 43.656 106.841 43.856C106.353 44.048 105.825 44.144 105.257 44.144ZM110.109 44L113.373 35.06H114.405L117.669 44H116.661L115.893 41.816H111.897L111.117 44H110.109ZM112.209 40.916H115.557L113.745 35.78H114.033L112.209 40.916ZM118.861 44V35.06H119.821V44H118.861ZM121.931 44V35.06H122.771L128.015 42.584H127.691V35.06H128.651V44H127.811L122.567 36.428H122.891V44H121.931Z" fill="white"/>
<defs>
<linearGradient id="paint0_linear_17_2804" x1="27" y1="-1.60506e-06" x2="-5.30772e-06" y2="29" gradientUnits="userSpaceOnUse">
<stop stop-color="#007B1E"/>
<stop offset="1" stop-color="#00D634"/>
</linearGradient>
</defs>
</svg>
