<svg width="194" height="219" viewBox="0 0 194 219" fill="none" xmlns="http://www.w3.org/2000/svg">
<path opacity="0.33" d="M-169.092 -50.1513C-179.549 -60.6081 -179.549 -77.5617 -169.092 -88.0185L-53.3313 -203.779L76.2342 -74.2135C86.6909 -63.7568 86.6909 -46.8031 76.2342 -36.3464L-39.5264 79.4141L-169.092 -50.1513Z" stroke="#009925" stroke-width="53.5522"/>
<path opacity="0.66" d="M-157.26 -62.0939C-167.717 -72.5506 -167.717 -89.5043 -157.26 -99.961L-41.4998 -215.722L88.0657 -86.1561C98.5224 -75.6994 98.5224 -58.7457 88.0657 -48.289L-27.6949 67.4716L-157.26 -62.0939Z" stroke="#009925" stroke-width="53.5522"/>
<path d="M-142.234 -77.0091C-152.691 -87.4658 -152.691 -104.419 -142.234 -114.876L-26.4735 -230.637L103.092 -101.071C113.549 -90.6146 113.549 -73.6609 103.092 -63.2041L-12.6686 52.5564L-142.234 -77.0091Z" stroke="#009925" stroke-width="53.5522"/>
<g opacity="0.3">
<path opacity="0.33" d="M-169.092 14.622C-179.549 4.16526 -179.549 -12.7884 -169.092 -23.2452L-53.3313 -139.006L76.2342 -9.44022C86.6909 1.01649 86.6909 17.9702 76.2342 28.4269L-39.5264 144.187L-169.092 14.622Z" stroke="#009925" stroke-width="53.5522"/>
<path opacity="0.66" d="M-157.26 2.67941C-167.717 -7.7773 -167.717 -24.731 -157.26 -35.1877L-41.4997 -150.948L88.0658 -21.3828C98.5225 -10.9261 98.5225 6.02761 88.0658 16.4843L-27.6948 132.245L-157.26 2.67941Z" stroke="#009925" stroke-width="53.5522"/>
<path d="M-142.234 -12.2357C-152.691 -22.6925 -152.691 -39.6462 -142.234 -50.1029L-26.4735 -165.863L103.092 -36.298C113.549 -25.8412 113.549 -8.88755 103.092 1.56917L-12.6686 117.33L-142.234 -12.2357Z" stroke="#009925" stroke-width="53.5522"/>
</g>
</svg>
