<svg width="309" height="214" viewBox="0 0 309 214" fill="none" xmlns="http://www.w3.org/2000/svg">
<path opacity="0.33" d="M158.338 269.862C150.944 257.055 155.332 240.679 168.139 233.285L309.916 151.43L401.533 310.114C408.927 322.921 404.539 339.297 391.732 346.691L249.955 428.546L158.338 269.862Z" stroke="#009925" stroke-width="53.5522"/>
<path opacity="0.66" d="M172.857 261.388C165.463 248.581 169.851 232.205 182.658 224.811L324.435 142.956L416.052 301.641C423.446 314.448 419.058 330.824 406.251 338.218L264.474 420.073L172.857 261.388Z" stroke="#009925" stroke-width="53.5522"/>
<path d="M191.232 250.87C183.838 238.063 188.226 221.687 201.033 214.293L342.81 132.438L434.427 291.123C441.821 303.93 437.433 320.306 424.626 327.7L282.849 409.555L191.232 250.87Z" stroke="#009925" stroke-width="53.5522"/>
<g opacity="0.3">
<path opacity="0.33" d="M141.574 332.428C134.179 319.621 138.567 303.245 151.374 295.851L293.151 213.996L384.768 372.68C392.162 385.487 387.774 401.863 374.967 409.257L233.19 491.112L141.574 332.428Z" stroke="#009925" stroke-width="53.5522"/>
<path opacity="0.66" d="M156.093 323.954C148.699 311.148 153.087 294.772 165.894 287.377L307.671 205.522L399.287 364.207C406.681 377.014 402.294 393.39 389.487 400.784L247.71 482.639L156.093 323.954Z" stroke="#009925" stroke-width="53.5522"/>
<path d="M174.468 313.436C167.073 300.63 171.461 284.254 184.268 276.86L326.045 195.005L417.662 353.689C425.056 366.496 420.668 382.872 407.861 390.266L266.084 472.121L174.468 313.436Z" stroke="#009925" stroke-width="53.5522"/>
</g>
</svg>
